<mxfile host="65bd71144e">
    <diagram id="AClnTGB2q1OWa_UrBYoU" name="第1頁">
        <mxGraphModel dx="3532" dy="3380" grid="0" gridSize="10" guides="1" tooltips="1" connect="1" arrows="1" fold="1" page="1" pageScale="1" pageWidth="827" pageHeight="1169" math="0" shadow="0">
            <root>
                <mxCell id="0"/>
                <mxCell id="1" parent="0"/>
                <mxCell id="32" value="" style="shape=table;startSize=0;container=1;collapsible=0;childLayout=tableLayout;fillColor=#bac8d3;strokeColor=#5D0101;perimeterSpacing=0;strokeWidth=6;fontSize=14;fontStyle=1;fontColor=#000000;" parent="1" vertex="1">
                    <mxGeometry x="-1596.5" y="-1080" width="230" height="450" as="geometry"/>
                </mxCell>
                <mxCell id="33" value="" style="shape=partialRectangle;collapsible=0;dropTarget=0;pointerEvents=0;top=0;left=0;bottom=0;right=0;points=[[0,0.5],[1,0.5]];portConstraint=eastwest;fillColor=#bac8d3;strokeColor=#23445d;fontSize=14;fontStyle=1;fontColor=#000000;" parent="32" vertex="1">
                    <mxGeometry width="230" height="40" as="geometry"/>
                </mxCell>
                <mxCell id="34" value="&lt;font style=&quot;font-size: 14px;&quot;&gt;會員資料表&lt;/font&gt;" style="shape=partialRectangle;html=1;whiteSpace=wrap;connectable=0;overflow=hidden;top=0;left=0;bottom=0;right=0;pointerEvents=1;fillColor=#bac8d3;strokeColor=#23445d;fontSize=14;fontStyle=1;fontColor=#000000;" parent="33" vertex="1">
                    <mxGeometry width="110" height="40" as="geometry">
                        <mxRectangle width="110" height="40" as="alternateBounds"/>
                    </mxGeometry>
                </mxCell>
                <mxCell id="35" value="" style="shape=partialRectangle;html=1;whiteSpace=wrap;connectable=0;overflow=hidden;top=0;left=0;bottom=0;right=0;pointerEvents=1;fillColor=#bac8d3;strokeColor=#23445d;fontSize=14;fontStyle=1;fontColor=#000000;" parent="33" vertex="1">
                    <mxGeometry x="110" width="120" height="40" as="geometry">
                        <mxRectangle width="120" height="40" as="alternateBounds"/>
                    </mxGeometry>
                </mxCell>
                <mxCell id="36" value="" style="shape=partialRectangle;collapsible=0;dropTarget=0;pointerEvents=0;top=0;left=0;bottom=0;right=0;points=[[0,0.5],[1,0.5]];portConstraint=eastwest;fillColor=#bac8d3;strokeColor=#23445d;fontSize=14;fontStyle=1;fontColor=#000000;" parent="32" vertex="1">
                    <mxGeometry y="40" width="230" height="40" as="geometry"/>
                </mxCell>
                <mxCell id="37" value="會員編號(PK)" style="shape=partialRectangle;html=1;whiteSpace=wrap;connectable=0;overflow=hidden;top=0;left=0;bottom=0;right=0;pointerEvents=1;fillColor=#e3c800;strokeColor=#B09500;fontSize=14;fontStyle=1;fontColor=#000000;" parent="36" vertex="1">
                    <mxGeometry width="110" height="40" as="geometry">
                        <mxRectangle width="110" height="40" as="alternateBounds"/>
                    </mxGeometry>
                </mxCell>
                <mxCell id="38" value="int" style="shape=partialRectangle;html=1;whiteSpace=wrap;connectable=0;overflow=hidden;top=0;left=0;bottom=0;right=0;pointerEvents=1;fillColor=#bac8d3;strokeColor=#23445d;fontSize=14;fontStyle=1;fontColor=#000000;" parent="36" vertex="1">
                    <mxGeometry x="110" width="120" height="40" as="geometry">
                        <mxRectangle width="120" height="40" as="alternateBounds"/>
                    </mxGeometry>
                </mxCell>
                <mxCell id="39" value="" style="shape=partialRectangle;collapsible=0;dropTarget=0;pointerEvents=0;top=0;left=0;bottom=0;right=0;points=[[0,0.5],[1,0.5]];portConstraint=eastwest;fillColor=#bac8d3;strokeColor=#23445d;fontSize=14;fontStyle=1;fontColor=#000000;" parent="32" vertex="1">
                    <mxGeometry y="80" width="230" height="40" as="geometry"/>
                </mxCell>
                <mxCell id="40" value="姓名&lt;span style=&quot;white-space: pre&quot;&gt;&#9;&lt;/span&gt;" style="shape=partialRectangle;html=1;whiteSpace=wrap;connectable=0;overflow=hidden;top=0;left=0;bottom=0;right=0;pointerEvents=1;fillColor=#bac8d3;strokeColor=#23445d;fontSize=14;fontStyle=1;fontColor=#000000;" parent="39" vertex="1">
                    <mxGeometry width="110" height="40" as="geometry">
                        <mxRectangle width="110" height="40" as="alternateBounds"/>
                    </mxGeometry>
                </mxCell>
                <mxCell id="41" value="varchar" style="shape=partialRectangle;html=1;whiteSpace=wrap;connectable=0;overflow=hidden;top=0;left=0;bottom=0;right=0;pointerEvents=1;fillColor=#bac8d3;strokeColor=#23445d;fontSize=14;fontStyle=1;fontColor=#000000;" parent="39" vertex="1">
                    <mxGeometry x="110" width="120" height="40" as="geometry">
                        <mxRectangle width="120" height="40" as="alternateBounds"/>
                    </mxGeometry>
                </mxCell>
                <mxCell id="42" value="" style="shape=partialRectangle;collapsible=0;dropTarget=0;pointerEvents=0;top=0;left=0;bottom=0;right=0;points=[[0,0.5],[1,0.5]];portConstraint=eastwest;fillColor=#bac8d3;strokeColor=#23445d;fontSize=14;fontStyle=1;fontColor=#000000;" parent="32" vertex="1">
                    <mxGeometry y="120" width="230" height="40" as="geometry"/>
                </mxCell>
                <mxCell id="43" value="出生年月日" style="shape=partialRectangle;html=1;whiteSpace=wrap;connectable=0;overflow=hidden;top=0;left=0;bottom=0;right=0;pointerEvents=1;fillColor=#bac8d3;strokeColor=#23445d;fontSize=14;fontStyle=1;fontColor=#000000;" parent="42" vertex="1">
                    <mxGeometry width="110" height="40" as="geometry">
                        <mxRectangle width="110" height="40" as="alternateBounds"/>
                    </mxGeometry>
                </mxCell>
                <mxCell id="44" value="date" style="shape=partialRectangle;html=1;whiteSpace=wrap;connectable=0;overflow=hidden;top=0;left=0;bottom=0;right=0;pointerEvents=1;fillColor=#bac8d3;strokeColor=#23445d;fontSize=14;fontStyle=1;fontColor=#000000;" parent="42" vertex="1">
                    <mxGeometry x="110" width="120" height="40" as="geometry">
                        <mxRectangle width="120" height="40" as="alternateBounds"/>
                    </mxGeometry>
                </mxCell>
                <mxCell id="45" value="" style="shape=partialRectangle;collapsible=0;dropTarget=0;pointerEvents=0;top=0;left=0;bottom=0;right=0;points=[[0,0.5],[1,0.5]];portConstraint=eastwest;fillColor=#bac8d3;strokeColor=#23445d;fontSize=14;fontStyle=1;fontColor=#000000;" parent="32" vertex="1">
                    <mxGeometry y="160" width="230" height="40" as="geometry"/>
                </mxCell>
                <mxCell id="46" value="地址" style="shape=partialRectangle;html=1;whiteSpace=wrap;connectable=0;overflow=hidden;top=0;left=0;bottom=0;right=0;pointerEvents=1;fillColor=#bac8d3;strokeColor=#23445d;fontSize=14;fontStyle=1;fontColor=#000000;" parent="45" vertex="1">
                    <mxGeometry width="110" height="40" as="geometry">
                        <mxRectangle width="110" height="40" as="alternateBounds"/>
                    </mxGeometry>
                </mxCell>
                <mxCell id="47" value="varchar" style="shape=partialRectangle;html=1;whiteSpace=wrap;connectable=0;overflow=hidden;top=0;left=0;bottom=0;right=0;pointerEvents=1;fillColor=#bac8d3;strokeColor=#23445d;fontSize=14;fontStyle=1;fontColor=#000000;" parent="45" vertex="1">
                    <mxGeometry x="110" width="120" height="40" as="geometry">
                        <mxRectangle width="120" height="40" as="alternateBounds"/>
                    </mxGeometry>
                </mxCell>
                <mxCell id="48" value="" style="shape=partialRectangle;collapsible=0;dropTarget=0;pointerEvents=0;top=0;left=0;bottom=0;right=0;points=[[0,0.5],[1,0.5]];portConstraint=eastwest;fillColor=#bac8d3;strokeColor=#23445d;fontSize=14;fontStyle=1;fontColor=#000000;" parent="32" vertex="1">
                    <mxGeometry y="200" width="230" height="40" as="geometry"/>
                </mxCell>
                <mxCell id="49" value="市話" style="shape=partialRectangle;html=1;whiteSpace=wrap;connectable=0;overflow=hidden;top=0;left=0;bottom=0;right=0;pointerEvents=1;fillColor=#bac8d3;strokeColor=#23445d;fontSize=14;fontStyle=1;fontColor=#000000;" parent="48" vertex="1">
                    <mxGeometry width="110" height="40" as="geometry">
                        <mxRectangle width="110" height="40" as="alternateBounds"/>
                    </mxGeometry>
                </mxCell>
                <mxCell id="50" value="varchar" style="shape=partialRectangle;html=1;whiteSpace=wrap;connectable=0;overflow=hidden;top=0;left=0;bottom=0;right=0;pointerEvents=1;fillColor=#bac8d3;strokeColor=#23445d;fontSize=14;fontStyle=1;fontColor=#000000;" parent="48" vertex="1">
                    <mxGeometry x="110" width="120" height="40" as="geometry">
                        <mxRectangle width="120" height="40" as="alternateBounds"/>
                    </mxGeometry>
                </mxCell>
                <mxCell id="51" value="" style="shape=partialRectangle;collapsible=0;dropTarget=0;pointerEvents=0;top=0;left=0;bottom=0;right=0;points=[[0,0.5],[1,0.5]];portConstraint=eastwest;fillColor=#bac8d3;strokeColor=#23445d;fontSize=14;fontStyle=1;fontColor=#000000;" parent="32" vertex="1">
                    <mxGeometry y="240" width="230" height="40" as="geometry"/>
                </mxCell>
                <mxCell id="52" value="手機" style="shape=partialRectangle;html=1;whiteSpace=wrap;connectable=0;overflow=hidden;top=0;left=0;bottom=0;right=0;pointerEvents=1;fillColor=#bac8d3;strokeColor=#23445d;fontSize=14;fontStyle=1;fontColor=#000000;" parent="51" vertex="1">
                    <mxGeometry width="110" height="40" as="geometry">
                        <mxRectangle width="110" height="40" as="alternateBounds"/>
                    </mxGeometry>
                </mxCell>
                <mxCell id="53" value="varchar" style="shape=partialRectangle;html=1;whiteSpace=wrap;connectable=0;overflow=hidden;top=0;left=0;bottom=0;right=0;pointerEvents=1;fillColor=#bac8d3;strokeColor=#23445d;fontSize=14;fontStyle=1;fontColor=#000000;" parent="51" vertex="1">
                    <mxGeometry x="110" width="120" height="40" as="geometry">
                        <mxRectangle width="120" height="40" as="alternateBounds"/>
                    </mxGeometry>
                </mxCell>
                <mxCell id="54" value="" style="shape=partialRectangle;collapsible=0;dropTarget=0;pointerEvents=0;top=0;left=0;bottom=0;right=0;points=[[0,0.5],[1,0.5]];portConstraint=eastwest;fillColor=#bac8d3;strokeColor=#23445d;fontSize=14;fontStyle=1;fontColor=#000000;" parent="32" vertex="1">
                    <mxGeometry y="280" width="230" height="40" as="geometry"/>
                </mxCell>
                <mxCell id="55" value="email" style="shape=partialRectangle;html=1;whiteSpace=wrap;connectable=0;overflow=hidden;top=0;left=0;bottom=0;right=0;pointerEvents=1;fillColor=#bac8d3;strokeColor=#23445d;fontSize=14;fontStyle=1;fontColor=#000000;" parent="54" vertex="1">
                    <mxGeometry width="110" height="40" as="geometry">
                        <mxRectangle width="110" height="40" as="alternateBounds"/>
                    </mxGeometry>
                </mxCell>
                <mxCell id="56" value="varchar" style="shape=partialRectangle;html=1;whiteSpace=wrap;connectable=0;overflow=hidden;top=0;left=0;bottom=0;right=0;pointerEvents=1;fillColor=#bac8d3;strokeColor=#23445d;fontSize=14;fontStyle=1;fontColor=#000000;" parent="54" vertex="1">
                    <mxGeometry x="110" width="120" height="40" as="geometry">
                        <mxRectangle width="120" height="40" as="alternateBounds"/>
                    </mxGeometry>
                </mxCell>
                <mxCell id="57" value="" style="shape=partialRectangle;collapsible=0;dropTarget=0;pointerEvents=0;top=0;left=0;bottom=0;right=0;points=[[0,0.5],[1,0.5]];portConstraint=eastwest;fillColor=#bac8d3;strokeColor=#23445d;fontSize=14;fontStyle=1;fontColor=#000000;" parent="32" vertex="1">
                    <mxGeometry y="320" width="230" height="40" as="geometry"/>
                </mxCell>
                <mxCell id="58" value="帳號" style="shape=partialRectangle;html=1;whiteSpace=wrap;connectable=0;overflow=hidden;top=0;left=0;bottom=0;right=0;pointerEvents=1;fillColor=#bac8d3;strokeColor=#23445d;fontSize=14;fontStyle=1;fontColor=#000000;" parent="57" vertex="1">
                    <mxGeometry width="110" height="40" as="geometry">
                        <mxRectangle width="110" height="40" as="alternateBounds"/>
                    </mxGeometry>
                </mxCell>
                <mxCell id="59" value="varchat" style="shape=partialRectangle;html=1;whiteSpace=wrap;connectable=0;overflow=hidden;top=0;left=0;bottom=0;right=0;pointerEvents=1;fillColor=#bac8d3;strokeColor=#23445d;fontSize=14;fontStyle=1;fontColor=#000000;" parent="57" vertex="1">
                    <mxGeometry x="110" width="120" height="40" as="geometry">
                        <mxRectangle width="120" height="40" as="alternateBounds"/>
                    </mxGeometry>
                </mxCell>
                <mxCell id="60" value="" style="shape=partialRectangle;collapsible=0;dropTarget=0;pointerEvents=0;top=0;left=0;bottom=0;right=0;points=[[0,0.5],[1,0.5]];portConstraint=eastwest;fillColor=#bac8d3;strokeColor=#23445d;fontSize=14;fontStyle=1;fontColor=#000000;" parent="32" vertex="1">
                    <mxGeometry y="360" width="230" height="50" as="geometry"/>
                </mxCell>
                <mxCell id="61" value="密碼(加密)" style="shape=partialRectangle;html=1;whiteSpace=wrap;connectable=0;overflow=hidden;top=0;left=0;bottom=0;right=0;pointerEvents=1;fillColor=#bac8d3;strokeColor=#23445d;fontSize=14;fontStyle=1;fontColor=#000000;" parent="60" vertex="1">
                    <mxGeometry width="110" height="50" as="geometry">
                        <mxRectangle width="110" height="50" as="alternateBounds"/>
                    </mxGeometry>
                </mxCell>
                <mxCell id="62" value="varchar" style="shape=partialRectangle;html=1;whiteSpace=wrap;connectable=0;overflow=hidden;top=0;left=0;bottom=0;right=0;pointerEvents=1;fillColor=#bac8d3;strokeColor=#23445d;fontSize=14;fontStyle=1;fontColor=#000000;" parent="60" vertex="1">
                    <mxGeometry x="110" width="120" height="50" as="geometry">
                        <mxRectangle width="120" height="50" as="alternateBounds"/>
                    </mxGeometry>
                </mxCell>
                <mxCell id="63" value="" style="shape=partialRectangle;collapsible=0;dropTarget=0;pointerEvents=0;top=0;left=0;bottom=0;right=0;points=[[0,0.5],[1,0.5]];portConstraint=eastwest;fillColor=#bac8d3;strokeColor=#23445d;fontSize=14;fontStyle=1;fontColor=#000000;" parent="32" vertex="1">
                    <mxGeometry y="410" width="230" height="40" as="geometry"/>
                </mxCell>
                <mxCell id="64" value="會員級別" style="shape=partialRectangle;html=1;whiteSpace=wrap;connectable=0;overflow=hidden;top=0;left=0;bottom=0;right=0;pointerEvents=1;fillColor=#bac8d3;strokeColor=#23445d;fontSize=14;fontStyle=1;fontColor=#000000;" parent="63" vertex="1">
                    <mxGeometry width="110" height="40" as="geometry">
                        <mxRectangle width="110" height="40" as="alternateBounds"/>
                    </mxGeometry>
                </mxCell>
                <mxCell id="65" value="enum" style="shape=partialRectangle;html=1;whiteSpace=wrap;connectable=0;overflow=hidden;top=0;left=0;bottom=0;right=0;pointerEvents=1;fillColor=#bac8d3;strokeColor=#23445d;fontSize=14;fontStyle=1;fontColor=#000000;" parent="63" vertex="1">
                    <mxGeometry x="110" width="120" height="40" as="geometry">
                        <mxRectangle width="120" height="40" as="alternateBounds"/>
                    </mxGeometry>
                </mxCell>
                <mxCell id="103" value="" style="shape=table;startSize=0;container=1;collapsible=0;childLayout=tableLayout;fontSize=14;strokeColor=#0066CC;strokeWidth=2;fillColor=#b1ddf0;" parent="1" vertex="1">
                    <mxGeometry x="-1200" y="-360" width="180" height="200" as="geometry"/>
                </mxCell>
                <mxCell id="104" value="" style="shape=partialRectangle;collapsible=0;dropTarget=0;pointerEvents=0;fillColor=none;top=0;left=0;bottom=0;right=0;points=[[0,0.5],[1,0.5]];portConstraint=eastwest;fontSize=14;fontColor=#000000;strokeColor=#5D0101;strokeWidth=6;" parent="103" vertex="1">
                    <mxGeometry width="180" height="40" as="geometry"/>
                </mxCell>
                <mxCell id="105" value="睡眠" style="shape=partialRectangle;html=1;whiteSpace=wrap;connectable=0;overflow=hidden;fillColor=none;top=0;left=0;bottom=0;right=0;pointerEvents=1;fontSize=14;fontColor=#000000;strokeColor=#5D0101;strokeWidth=6;" parent="104" vertex="1">
                    <mxGeometry width="90" height="40" as="geometry">
                        <mxRectangle width="90" height="40" as="alternateBounds"/>
                    </mxGeometry>
                </mxCell>
                <mxCell id="106" value="" style="shape=partialRectangle;html=1;whiteSpace=wrap;connectable=0;overflow=hidden;fillColor=none;top=0;left=0;bottom=0;right=0;pointerEvents=1;fontSize=14;fontColor=#000000;strokeColor=#5D0101;strokeWidth=6;" parent="104" vertex="1">
                    <mxGeometry x="90" width="90" height="40" as="geometry">
                        <mxRectangle width="90" height="40" as="alternateBounds"/>
                    </mxGeometry>
                </mxCell>
                <mxCell id="107" value="" style="shape=partialRectangle;collapsible=0;dropTarget=0;pointerEvents=0;fillColor=none;top=0;left=0;bottom=0;right=0;points=[[0,0.5],[1,0.5]];portConstraint=eastwest;fontSize=14;fontColor=#000000;strokeColor=#5D0101;strokeWidth=6;" parent="103" vertex="1">
                    <mxGeometry y="40" width="180" height="40" as="geometry"/>
                </mxCell>
                <mxCell id="108" value="流水號(PK)" style="shape=partialRectangle;html=1;whiteSpace=wrap;connectable=0;overflow=hidden;fillColor=#e3c800;top=0;left=0;bottom=0;right=0;pointerEvents=1;fontSize=14;fontColor=#000000;strokeColor=#B09500;strokeWidth=6;" parent="107" vertex="1">
                    <mxGeometry width="90" height="40" as="geometry">
                        <mxRectangle width="90" height="40" as="alternateBounds"/>
                    </mxGeometry>
                </mxCell>
                <mxCell id="109" value="int" style="shape=partialRectangle;html=1;whiteSpace=wrap;connectable=0;overflow=hidden;fillColor=none;top=0;left=0;bottom=0;right=0;pointerEvents=1;fontSize=14;fontColor=#000000;strokeColor=#5D0101;strokeWidth=6;" parent="107" vertex="1">
                    <mxGeometry x="90" width="90" height="40" as="geometry">
                        <mxRectangle width="90" height="40" as="alternateBounds"/>
                    </mxGeometry>
                </mxCell>
                <mxCell id="110" value="" style="shape=partialRectangle;collapsible=0;dropTarget=0;pointerEvents=0;fillColor=none;top=0;left=0;bottom=0;right=0;points=[[0,0.5],[1,0.5]];portConstraint=eastwest;fontSize=14;fontColor=#000000;strokeColor=#5D0101;strokeWidth=6;" parent="103" vertex="1">
                    <mxGeometry y="80" width="180" height="40" as="geometry"/>
                </mxCell>
                <mxCell id="111" value="會員編號FK" style="shape=partialRectangle;html=1;whiteSpace=wrap;connectable=0;overflow=hidden;fillColor=none;top=0;left=0;bottom=0;right=0;pointerEvents=1;fontSize=14;fontColor=#000000;strokeColor=#5D0101;strokeWidth=6;" parent="110" vertex="1">
                    <mxGeometry width="90" height="40" as="geometry">
                        <mxRectangle width="90" height="40" as="alternateBounds"/>
                    </mxGeometry>
                </mxCell>
                <mxCell id="112" value="varchar" style="shape=partialRectangle;html=1;whiteSpace=wrap;connectable=0;overflow=hidden;fillColor=none;top=0;left=0;bottom=0;right=0;pointerEvents=1;fontSize=14;fontColor=#000000;strokeColor=#5D0101;strokeWidth=6;" parent="110" vertex="1">
                    <mxGeometry x="90" width="90" height="40" as="geometry">
                        <mxRectangle width="90" height="40" as="alternateBounds"/>
                    </mxGeometry>
                </mxCell>
                <mxCell id="113" value="" style="shape=partialRectangle;collapsible=0;dropTarget=0;pointerEvents=0;fillColor=none;top=0;left=0;bottom=0;right=0;points=[[0,0.5],[1,0.5]];portConstraint=eastwest;fontSize=14;fontColor=#000000;strokeColor=#5D0101;strokeWidth=6;" parent="103" vertex="1">
                    <mxGeometry y="120" width="180" height="40" as="geometry"/>
                </mxCell>
                <mxCell id="114" value="date" style="shape=partialRectangle;html=1;whiteSpace=wrap;connectable=0;overflow=hidden;fillColor=none;top=0;left=0;bottom=0;right=0;pointerEvents=1;fontSize=14;fontColor=#000000;strokeColor=#5D0101;strokeWidth=6;" parent="113" vertex="1">
                    <mxGeometry width="90" height="40" as="geometry">
                        <mxRectangle width="90" height="40" as="alternateBounds"/>
                    </mxGeometry>
                </mxCell>
                <mxCell id="115" value="date" style="shape=partialRectangle;html=1;whiteSpace=wrap;connectable=0;overflow=hidden;fillColor=none;top=0;left=0;bottom=0;right=0;pointerEvents=1;fontSize=14;fontColor=#000000;strokeColor=#5D0101;strokeWidth=6;" parent="113" vertex="1">
                    <mxGeometry x="90" width="90" height="40" as="geometry">
                        <mxRectangle width="90" height="40" as="alternateBounds"/>
                    </mxGeometry>
                </mxCell>
                <mxCell id="116" value="" style="shape=partialRectangle;collapsible=0;dropTarget=0;pointerEvents=0;fillColor=none;top=0;left=0;bottom=0;right=0;points=[[0,0.5],[1,0.5]];portConstraint=eastwest;fontSize=14;fontColor=#000000;strokeColor=#5D0101;strokeWidth=6;" parent="103" vertex="1">
                    <mxGeometry y="160" width="180" height="40" as="geometry"/>
                </mxCell>
                <mxCell id="117" value="睡眠時數種類FK" style="shape=partialRectangle;html=1;whiteSpace=wrap;connectable=0;overflow=hidden;fillColor=none;top=0;left=0;bottom=0;right=0;pointerEvents=1;fontSize=14;fontColor=#000000;strokeColor=#5D0101;strokeWidth=6;" parent="116" vertex="1">
                    <mxGeometry width="90" height="40" as="geometry">
                        <mxRectangle width="90" height="40" as="alternateBounds"/>
                    </mxGeometry>
                </mxCell>
                <mxCell id="118" value="float" style="shape=partialRectangle;html=1;whiteSpace=wrap;connectable=0;overflow=hidden;fillColor=none;top=0;left=0;bottom=0;right=0;pointerEvents=1;fontSize=14;fontColor=#000000;strokeColor=#5D0101;strokeWidth=6;" parent="116" vertex="1">
                    <mxGeometry x="90" width="90" height="40" as="geometry">
                        <mxRectangle width="90" height="40" as="alternateBounds"/>
                    </mxGeometry>
                </mxCell>
                <mxCell id="119" value="" style="shape=table;startSize=0;container=1;collapsible=0;childLayout=tableLayout;fontSize=14;strokeColor=#10739e;strokeWidth=2;fillColor=#b1ddf0;" parent="1" vertex="1">
                    <mxGeometry x="-1200" y="-720" width="180" height="240" as="geometry"/>
                </mxCell>
                <mxCell id="120" value="" style="shape=partialRectangle;collapsible=0;dropTarget=0;pointerEvents=0;fillColor=none;top=0;left=0;bottom=0;right=0;points=[[0,0.5],[1,0.5]];portConstraint=eastwest;fontSize=14;fontColor=#000000;strokeColor=#009E3F;strokeWidth=2;" parent="119" vertex="1">
                    <mxGeometry width="180" height="40" as="geometry"/>
                </mxCell>
                <mxCell id="121" value="運動" style="shape=partialRectangle;html=1;whiteSpace=wrap;connectable=0;overflow=hidden;fillColor=none;top=0;left=0;bottom=0;right=0;pointerEvents=1;fontSize=14;fontColor=#000000;strokeColor=#009E3F;strokeWidth=2;" parent="120" vertex="1">
                    <mxGeometry width="90" height="40" as="geometry">
                        <mxRectangle width="90" height="40" as="alternateBounds"/>
                    </mxGeometry>
                </mxCell>
                <mxCell id="122" value="" style="shape=partialRectangle;html=1;whiteSpace=wrap;connectable=0;overflow=hidden;fillColor=none;top=0;left=0;bottom=0;right=0;pointerEvents=1;fontSize=14;fontColor=#000000;strokeColor=#009E3F;strokeWidth=2;" parent="120" vertex="1">
                    <mxGeometry x="90" width="90" height="40" as="geometry">
                        <mxRectangle width="90" height="40" as="alternateBounds"/>
                    </mxGeometry>
                </mxCell>
                <mxCell id="123" value="" style="shape=partialRectangle;collapsible=0;dropTarget=0;pointerEvents=0;fillColor=none;top=0;left=0;bottom=0;right=0;points=[[0,0.5],[1,0.5]];portConstraint=eastwest;fontSize=14;fontColor=#000000;strokeColor=#009E3F;strokeWidth=2;" parent="119" vertex="1">
                    <mxGeometry y="40" width="180" height="40" as="geometry"/>
                </mxCell>
                <mxCell id="124" value="流水號(PK)" style="shape=partialRectangle;html=1;whiteSpace=wrap;connectable=0;overflow=hidden;fillColor=#e3c800;top=0;left=0;bottom=0;right=0;pointerEvents=1;fontSize=14;fontColor=#000000;strokeColor=#B09500;strokeWidth=2;" parent="123" vertex="1">
                    <mxGeometry width="90" height="40" as="geometry">
                        <mxRectangle width="90" height="40" as="alternateBounds"/>
                    </mxGeometry>
                </mxCell>
                <mxCell id="125" value="int" style="shape=partialRectangle;html=1;whiteSpace=wrap;connectable=0;overflow=hidden;fillColor=none;top=0;left=0;bottom=0;right=0;pointerEvents=1;fontSize=14;fontColor=#000000;strokeColor=#009E3F;strokeWidth=2;" parent="123" vertex="1">
                    <mxGeometry x="90" width="90" height="40" as="geometry">
                        <mxRectangle width="90" height="40" as="alternateBounds"/>
                    </mxGeometry>
                </mxCell>
                <mxCell id="126" value="" style="shape=partialRectangle;collapsible=0;dropTarget=0;pointerEvents=0;fillColor=none;top=0;left=0;bottom=0;right=0;points=[[0,0.5],[1,0.5]];portConstraint=eastwest;fontSize=14;fontColor=#000000;strokeColor=#009E3F;strokeWidth=2;" parent="119" vertex="1">
                    <mxGeometry y="80" width="180" height="40" as="geometry"/>
                </mxCell>
                <mxCell id="127" value="會員編號FK" style="shape=partialRectangle;html=1;whiteSpace=wrap;connectable=0;overflow=hidden;fillColor=none;top=0;left=0;bottom=0;right=0;pointerEvents=1;fontSize=14;fontColor=#000000;strokeColor=#009E3F;strokeWidth=2;" parent="126" vertex="1">
                    <mxGeometry width="90" height="40" as="geometry">
                        <mxRectangle width="90" height="40" as="alternateBounds"/>
                    </mxGeometry>
                </mxCell>
                <mxCell id="128" value="int" style="shape=partialRectangle;html=1;whiteSpace=wrap;connectable=0;overflow=hidden;fillColor=none;top=0;left=0;bottom=0;right=0;pointerEvents=1;fontSize=14;fontColor=#000000;strokeColor=#009E3F;strokeWidth=2;" parent="126" vertex="1">
                    <mxGeometry x="90" width="90" height="40" as="geometry">
                        <mxRectangle width="90" height="40" as="alternateBounds"/>
                    </mxGeometry>
                </mxCell>
                <mxCell id="129" value="" style="shape=partialRectangle;collapsible=0;dropTarget=0;pointerEvents=0;fillColor=none;top=0;left=0;bottom=0;right=0;points=[[0,0.5],[1,0.5]];portConstraint=eastwest;fontSize=14;fontColor=#000000;strokeColor=#009E3F;strokeWidth=2;" parent="119" vertex="1">
                    <mxGeometry y="120" width="180" height="40" as="geometry"/>
                </mxCell>
                <mxCell id="130" value="日期" style="shape=partialRectangle;html=1;whiteSpace=wrap;connectable=0;overflow=hidden;fillColor=none;top=0;left=0;bottom=0;right=0;pointerEvents=1;fontSize=14;fontColor=#000000;strokeColor=#009E3F;strokeWidth=2;" parent="129" vertex="1">
                    <mxGeometry width="90" height="40" as="geometry">
                        <mxRectangle width="90" height="40" as="alternateBounds"/>
                    </mxGeometry>
                </mxCell>
                <mxCell id="131" value="date" style="shape=partialRectangle;html=1;whiteSpace=wrap;connectable=0;overflow=hidden;fillColor=none;top=0;left=0;bottom=0;right=0;pointerEvents=1;fontSize=14;fontColor=#000000;strokeColor=#009E3F;strokeWidth=2;" parent="129" vertex="1">
                    <mxGeometry x="90" width="90" height="40" as="geometry">
                        <mxRectangle width="90" height="40" as="alternateBounds"/>
                    </mxGeometry>
                </mxCell>
                <mxCell id="132" value="" style="shape=partialRectangle;collapsible=0;dropTarget=0;pointerEvents=0;fillColor=none;top=0;left=0;bottom=0;right=0;points=[[0,0.5],[1,0.5]];portConstraint=eastwest;fontSize=14;fontColor=#000000;strokeColor=#009E3F;strokeWidth=2;" parent="119" vertex="1">
                    <mxGeometry y="160" width="180" height="40" as="geometry"/>
                </mxCell>
                <mxCell id="133" value="運動種類FK" style="shape=partialRectangle;html=1;whiteSpace=wrap;connectable=0;overflow=hidden;fillColor=none;top=0;left=0;bottom=0;right=0;pointerEvents=1;fontSize=14;fontColor=#000000;strokeColor=#009E3F;strokeWidth=2;" parent="132" vertex="1">
                    <mxGeometry width="90" height="40" as="geometry">
                        <mxRectangle width="90" height="40" as="alternateBounds"/>
                    </mxGeometry>
                </mxCell>
                <mxCell id="134" value="int" style="shape=partialRectangle;html=1;whiteSpace=wrap;connectable=0;overflow=hidden;fillColor=none;top=0;left=0;bottom=0;right=0;pointerEvents=1;fontSize=14;fontColor=#000000;strokeColor=#009E3F;strokeWidth=2;" parent="132" vertex="1">
                    <mxGeometry x="90" width="90" height="40" as="geometry">
                        <mxRectangle width="90" height="40" as="alternateBounds"/>
                    </mxGeometry>
                </mxCell>
                <mxCell id="135" value="" style="shape=partialRectangle;collapsible=0;dropTarget=0;pointerEvents=0;fillColor=none;top=0;left=0;bottom=0;right=0;points=[[0,0.5],[1,0.5]];portConstraint=eastwest;fontSize=14;fontColor=#000000;strokeColor=#009E3F;strokeWidth=2;" parent="119" vertex="1">
                    <mxGeometry y="200" width="180" height="40" as="geometry"/>
                </mxCell>
                <mxCell id="136" value="運動時間" style="shape=partialRectangle;html=1;whiteSpace=wrap;connectable=0;overflow=hidden;fillColor=none;top=0;left=0;bottom=0;right=0;pointerEvents=1;fontSize=14;fontColor=#000000;strokeColor=#009E3F;strokeWidth=2;" parent="135" vertex="1">
                    <mxGeometry width="90" height="40" as="geometry">
                        <mxRectangle width="90" height="40" as="alternateBounds"/>
                    </mxGeometry>
                </mxCell>
                <mxCell id="137" value="float" style="shape=partialRectangle;html=1;whiteSpace=wrap;connectable=0;overflow=hidden;fillColor=none;top=0;left=0;bottom=0;right=0;pointerEvents=1;fontSize=14;fontColor=#000000;strokeColor=#009E3F;strokeWidth=2;" parent="135" vertex="1">
                    <mxGeometry x="90" width="90" height="40" as="geometry">
                        <mxRectangle width="90" height="40" as="alternateBounds"/>
                    </mxGeometry>
                </mxCell>
                <mxCell id="141" value="" style="shape=table;startSize=0;container=1;collapsible=0;childLayout=tableLayout;fontSize=14;strokeColor=#10739e;strokeWidth=2;fillColor=#b1ddf0;" parent="1" vertex="1">
                    <mxGeometry x="-860" y="-650" width="170" height="160" as="geometry"/>
                </mxCell>
                <mxCell id="142" value="" style="shape=partialRectangle;collapsible=0;dropTarget=0;pointerEvents=0;fillColor=none;top=0;left=0;bottom=0;right=0;points=[[0,0.5],[1,0.5]];portConstraint=eastwest;fontSize=14;fontColor=#000000;strokeColor=#009E3F;strokeWidth=2;" parent="141" vertex="1">
                    <mxGeometry width="170" height="40" as="geometry"/>
                </mxCell>
                <mxCell id="143" value="運動種類" style="shape=partialRectangle;html=1;whiteSpace=wrap;connectable=0;overflow=hidden;fillColor=none;top=0;left=0;bottom=0;right=0;pointerEvents=1;fontSize=14;fontColor=#000000;strokeColor=#009E3F;strokeWidth=2;" parent="142" vertex="1">
                    <mxGeometry width="80" height="40" as="geometry">
                        <mxRectangle width="80" height="40" as="alternateBounds"/>
                    </mxGeometry>
                </mxCell>
                <mxCell id="144" value="" style="shape=partialRectangle;html=1;whiteSpace=wrap;connectable=0;overflow=hidden;fillColor=none;top=0;left=0;bottom=0;right=0;pointerEvents=1;fontSize=14;fontColor=#000000;strokeColor=#009E3F;strokeWidth=2;" parent="142" vertex="1">
                    <mxGeometry x="80" width="90" height="40" as="geometry">
                        <mxRectangle width="90" height="40" as="alternateBounds"/>
                    </mxGeometry>
                </mxCell>
                <mxCell id="145" value="" style="shape=partialRectangle;collapsible=0;dropTarget=0;pointerEvents=0;fillColor=none;top=0;left=0;bottom=0;right=0;points=[[0,0.5],[1,0.5]];portConstraint=eastwest;fontSize=14;fontColor=#000000;strokeColor=#009E3F;strokeWidth=2;" parent="141" vertex="1">
                    <mxGeometry y="40" width="170" height="40" as="geometry"/>
                </mxCell>
                <mxCell id="146" value="流水號PK" style="shape=partialRectangle;html=1;whiteSpace=wrap;connectable=0;overflow=hidden;fillColor=#e3c800;top=0;left=0;bottom=0;right=0;pointerEvents=1;fontSize=14;fontColor=#000000;strokeColor=#B09500;strokeWidth=2;" parent="145" vertex="1">
                    <mxGeometry width="80" height="40" as="geometry">
                        <mxRectangle width="80" height="40" as="alternateBounds"/>
                    </mxGeometry>
                </mxCell>
                <mxCell id="147" value="int" style="shape=partialRectangle;html=1;whiteSpace=wrap;connectable=0;overflow=hidden;fillColor=none;top=0;left=0;bottom=0;right=0;pointerEvents=1;fontSize=14;fontColor=#000000;strokeColor=#009E3F;strokeWidth=2;" parent="145" vertex="1">
                    <mxGeometry x="80" width="90" height="40" as="geometry">
                        <mxRectangle width="90" height="40" as="alternateBounds"/>
                    </mxGeometry>
                </mxCell>
                <mxCell id="148" value="" style="shape=partialRectangle;collapsible=0;dropTarget=0;pointerEvents=0;fillColor=none;top=0;left=0;bottom=0;right=0;points=[[0,0.5],[1,0.5]];portConstraint=eastwest;fontSize=14;fontColor=#000000;strokeColor=#009E3F;strokeWidth=2;" parent="141" vertex="1">
                    <mxGeometry y="80" width="170" height="40" as="geometry"/>
                </mxCell>
                <mxCell id="149" value="運動代碼" style="shape=partialRectangle;html=1;whiteSpace=wrap;connectable=0;overflow=hidden;fillColor=none;top=0;left=0;bottom=0;right=0;pointerEvents=1;fontSize=14;fontColor=#000000;strokeColor=#009E3F;strokeWidth=2;" parent="148" vertex="1">
                    <mxGeometry width="80" height="40" as="geometry">
                        <mxRectangle width="80" height="40" as="alternateBounds"/>
                    </mxGeometry>
                </mxCell>
                <mxCell id="150" value="varchar" style="shape=partialRectangle;html=1;whiteSpace=wrap;connectable=0;overflow=hidden;fillColor=none;top=0;left=0;bottom=0;right=0;pointerEvents=1;fontSize=14;fontColor=#000000;strokeColor=#009E3F;strokeWidth=2;" parent="148" vertex="1">
                    <mxGeometry x="80" width="90" height="40" as="geometry">
                        <mxRectangle width="90" height="40" as="alternateBounds"/>
                    </mxGeometry>
                </mxCell>
                <mxCell id="151" value="" style="shape=partialRectangle;collapsible=0;dropTarget=0;pointerEvents=0;fillColor=none;top=0;left=0;bottom=0;right=0;points=[[0,0.5],[1,0.5]];portConstraint=eastwest;fontSize=14;fontColor=#000000;strokeColor=#009E3F;strokeWidth=2;" parent="141" vertex="1">
                    <mxGeometry y="120" width="170" height="40" as="geometry"/>
                </mxCell>
                <mxCell id="152" value="熱量消耗" style="shape=partialRectangle;html=1;whiteSpace=wrap;connectable=0;overflow=hidden;fillColor=none;top=0;left=0;bottom=0;right=0;pointerEvents=1;fontSize=14;fontColor=#000000;strokeColor=#009E3F;strokeWidth=2;" parent="151" vertex="1">
                    <mxGeometry width="80" height="40" as="geometry">
                        <mxRectangle width="80" height="40" as="alternateBounds"/>
                    </mxGeometry>
                </mxCell>
                <mxCell id="153" value="int" style="shape=partialRectangle;html=1;whiteSpace=wrap;connectable=0;overflow=hidden;fillColor=none;top=0;left=0;bottom=0;right=0;pointerEvents=1;fontSize=14;fontColor=#000000;strokeColor=#009E3F;strokeWidth=2;" parent="151" vertex="1">
                    <mxGeometry x="80" width="90" height="40" as="geometry">
                        <mxRectangle width="90" height="40" as="alternateBounds"/>
                    </mxGeometry>
                </mxCell>
                <mxCell id="158" value="" style="shape=table;startSize=0;container=1;collapsible=0;childLayout=tableLayout;fontSize=14;strokeColor=#10739e;strokeWidth=2;fillColor=#b1ddf0;" parent="1" vertex="1">
                    <mxGeometry x="-1200" y="-1080" width="200" height="200" as="geometry"/>
                </mxCell>
                <mxCell id="159" value="" style="shape=partialRectangle;collapsible=0;dropTarget=0;pointerEvents=0;fillColor=none;top=0;left=0;bottom=0;right=0;points=[[0,0.5],[1,0.5]];portConstraint=eastwest;fontSize=14;fontColor=#000000;strokeColor=#009E3F;strokeWidth=2;" parent="158" vertex="1">
                    <mxGeometry width="200" height="40" as="geometry"/>
                </mxCell>
                <mxCell id="160" value="熱量攝取" style="shape=partialRectangle;html=1;whiteSpace=wrap;connectable=0;overflow=hidden;fillColor=none;top=0;left=0;bottom=0;right=0;pointerEvents=1;fontSize=14;fontColor=#000000;strokeColor=#009E3F;strokeWidth=2;" parent="159" vertex="1">
                    <mxGeometry width="100" height="40" as="geometry">
                        <mxRectangle width="100" height="40" as="alternateBounds"/>
                    </mxGeometry>
                </mxCell>
                <mxCell id="161" value="" style="shape=partialRectangle;html=1;whiteSpace=wrap;connectable=0;overflow=hidden;fillColor=none;top=0;left=0;bottom=0;right=0;pointerEvents=1;fontSize=14;fontColor=#000000;strokeColor=#009E3F;strokeWidth=2;" parent="159" vertex="1">
                    <mxGeometry x="100" width="100" height="40" as="geometry">
                        <mxRectangle width="100" height="40" as="alternateBounds"/>
                    </mxGeometry>
                </mxCell>
                <mxCell id="162" value="" style="shape=partialRectangle;collapsible=0;dropTarget=0;pointerEvents=0;fillColor=none;top=0;left=0;bottom=0;right=0;points=[[0,0.5],[1,0.5]];portConstraint=eastwest;fontSize=14;fontColor=#000000;strokeColor=#009E3F;strokeWidth=2;" parent="158" vertex="1">
                    <mxGeometry y="40" width="200" height="40" as="geometry"/>
                </mxCell>
                <mxCell id="163" value="流水號PK" style="shape=partialRectangle;html=1;whiteSpace=wrap;connectable=0;overflow=hidden;fillColor=#e3c800;top=0;left=0;bottom=0;right=0;pointerEvents=1;fontSize=14;fontColor=#000000;strokeColor=#B09500;strokeWidth=2;" parent="162" vertex="1">
                    <mxGeometry width="100" height="40" as="geometry">
                        <mxRectangle width="100" height="40" as="alternateBounds"/>
                    </mxGeometry>
                </mxCell>
                <mxCell id="164" value="int" style="shape=partialRectangle;html=1;whiteSpace=wrap;connectable=0;overflow=hidden;fillColor=none;top=0;left=0;bottom=0;right=0;pointerEvents=1;fontSize=14;fontColor=#000000;strokeColor=#009E3F;strokeWidth=2;" parent="162" vertex="1">
                    <mxGeometry x="100" width="100" height="40" as="geometry">
                        <mxRectangle width="100" height="40" as="alternateBounds"/>
                    </mxGeometry>
                </mxCell>
                <mxCell id="165" value="" style="shape=partialRectangle;collapsible=0;dropTarget=0;pointerEvents=0;fillColor=none;top=0;left=0;bottom=0;right=0;points=[[0,0.5],[1,0.5]];portConstraint=eastwest;fontSize=14;fontColor=#000000;strokeColor=#009E3F;strokeWidth=2;" parent="158" vertex="1">
                    <mxGeometry y="80" width="200" height="40" as="geometry"/>
                </mxCell>
                <mxCell id="166" value="會員編號FK" style="shape=partialRectangle;html=1;whiteSpace=wrap;connectable=0;overflow=hidden;fillColor=none;top=0;left=0;bottom=0;right=0;pointerEvents=1;fontSize=14;fontColor=#000000;strokeColor=#009E3F;strokeWidth=2;" parent="165" vertex="1">
                    <mxGeometry width="100" height="40" as="geometry">
                        <mxRectangle width="100" height="40" as="alternateBounds"/>
                    </mxGeometry>
                </mxCell>
                <mxCell id="167" value="int" style="shape=partialRectangle;html=1;whiteSpace=wrap;connectable=0;overflow=hidden;fillColor=none;top=0;left=0;bottom=0;right=0;pointerEvents=1;fontSize=14;fontColor=#000000;strokeColor=#009E3F;strokeWidth=2;" parent="165" vertex="1">
                    <mxGeometry x="100" width="100" height="40" as="geometry">
                        <mxRectangle width="100" height="40" as="alternateBounds"/>
                    </mxGeometry>
                </mxCell>
                <mxCell id="168" value="" style="shape=partialRectangle;collapsible=0;dropTarget=0;pointerEvents=0;fillColor=none;top=0;left=0;bottom=0;right=0;points=[[0,0.5],[1,0.5]];portConstraint=eastwest;fontSize=14;fontColor=#000000;strokeColor=#009E3F;strokeWidth=2;" parent="158" vertex="1">
                    <mxGeometry y="120" width="200" height="40" as="geometry"/>
                </mxCell>
                <mxCell id="169" value="日期" style="shape=partialRectangle;html=1;whiteSpace=wrap;connectable=0;overflow=hidden;fillColor=none;top=0;left=0;bottom=0;right=0;pointerEvents=1;fontSize=14;fontColor=#000000;strokeColor=#009E3F;strokeWidth=2;" parent="168" vertex="1">
                    <mxGeometry width="100" height="40" as="geometry">
                        <mxRectangle width="100" height="40" as="alternateBounds"/>
                    </mxGeometry>
                </mxCell>
                <mxCell id="170" value="date" style="shape=partialRectangle;html=1;whiteSpace=wrap;connectable=0;overflow=hidden;fillColor=none;top=0;left=0;bottom=0;right=0;pointerEvents=1;fontSize=14;fontColor=#000000;strokeColor=#009E3F;strokeWidth=2;" parent="168" vertex="1">
                    <mxGeometry x="100" width="100" height="40" as="geometry">
                        <mxRectangle width="100" height="40" as="alternateBounds"/>
                    </mxGeometry>
                </mxCell>
                <mxCell id="171" value="" style="shape=partialRectangle;collapsible=0;dropTarget=0;pointerEvents=0;fillColor=none;top=0;left=0;bottom=0;right=0;points=[[0,0.5],[1,0.5]];portConstraint=eastwest;fontSize=14;fontColor=#000000;strokeColor=#009E3F;strokeWidth=2;" parent="158" vertex="1">
                    <mxGeometry y="160" width="200" height="40" as="geometry"/>
                </mxCell>
                <mxCell id="172" value="區段" style="shape=partialRectangle;html=1;whiteSpace=wrap;connectable=0;overflow=hidden;fillColor=none;top=0;left=0;bottom=0;right=0;pointerEvents=1;fontSize=14;fontColor=#000000;strokeColor=#009E3F;strokeWidth=2;" parent="171" vertex="1">
                    <mxGeometry width="100" height="40" as="geometry">
                        <mxRectangle width="100" height="40" as="alternateBounds"/>
                    </mxGeometry>
                </mxCell>
                <mxCell id="173" value="enum" style="shape=partialRectangle;html=1;whiteSpace=wrap;connectable=0;overflow=hidden;fillColor=none;top=0;left=0;bottom=0;right=0;pointerEvents=1;fontSize=14;fontColor=#000000;strokeColor=#009E3F;strokeWidth=2;" parent="171" vertex="1">
                    <mxGeometry x="100" width="100" height="40" as="geometry">
                        <mxRectangle width="100" height="40" as="alternateBounds"/>
                    </mxGeometry>
                </mxCell>
                <mxCell id="178" value="" style="shape=table;startSize=0;container=1;collapsible=0;childLayout=tableLayout;fontSize=14;strokeColor=#10739e;strokeWidth=2;fillColor=#b1ddf0;" parent="1" vertex="1">
                    <mxGeometry x="-890" y="-1060" width="200" height="160" as="geometry"/>
                </mxCell>
                <mxCell id="179" value="" style="shape=partialRectangle;collapsible=0;dropTarget=0;pointerEvents=0;fillColor=none;top=0;left=0;bottom=0;right=0;points=[[0,0.5],[1,0.5]];portConstraint=eastwest;fontSize=14;fontColor=#000000;strokeColor=#009E3F;strokeWidth=2;" parent="178" vertex="1">
                    <mxGeometry width="200" height="40" as="geometry"/>
                </mxCell>
                <mxCell id="180" value="會員飲食" style="shape=partialRectangle;html=1;whiteSpace=wrap;connectable=0;overflow=hidden;fillColor=none;top=0;left=0;bottom=0;right=0;pointerEvents=1;fontSize=14;fontColor=#000000;strokeColor=#009E3F;strokeWidth=2;" parent="179" vertex="1">
                    <mxGeometry width="100" height="40" as="geometry">
                        <mxRectangle width="100" height="40" as="alternateBounds"/>
                    </mxGeometry>
                </mxCell>
                <mxCell id="181" value="" style="shape=partialRectangle;html=1;whiteSpace=wrap;connectable=0;overflow=hidden;fillColor=none;top=0;left=0;bottom=0;right=0;pointerEvents=1;fontSize=14;fontColor=#000000;strokeColor=#009E3F;strokeWidth=2;" parent="179" vertex="1">
                    <mxGeometry x="100" width="100" height="40" as="geometry">
                        <mxRectangle width="100" height="40" as="alternateBounds"/>
                    </mxGeometry>
                </mxCell>
                <mxCell id="182" value="" style="shape=partialRectangle;collapsible=0;dropTarget=0;pointerEvents=0;fillColor=none;top=0;left=0;bottom=0;right=0;points=[[0,0.5],[1,0.5]];portConstraint=eastwest;fontSize=14;fontColor=#000000;strokeColor=#009E3F;strokeWidth=2;" parent="178" vertex="1">
                    <mxGeometry y="40" width="200" height="40" as="geometry"/>
                </mxCell>
                <mxCell id="183" value="熱量流水號FK" style="shape=partialRectangle;html=1;whiteSpace=wrap;connectable=0;overflow=hidden;fillColor=none;top=0;left=0;bottom=0;right=0;pointerEvents=1;fontSize=14;fontColor=#000000;strokeColor=#009E3F;strokeWidth=2;" parent="182" vertex="1">
                    <mxGeometry width="100" height="40" as="geometry">
                        <mxRectangle width="100" height="40" as="alternateBounds"/>
                    </mxGeometry>
                </mxCell>
                <mxCell id="184" value="int" style="shape=partialRectangle;html=1;whiteSpace=wrap;connectable=0;overflow=hidden;fillColor=none;top=0;left=0;bottom=0;right=0;pointerEvents=1;fontSize=14;fontColor=#000000;strokeColor=#009E3F;strokeWidth=2;" parent="182" vertex="1">
                    <mxGeometry x="100" width="100" height="40" as="geometry">
                        <mxRectangle width="100" height="40" as="alternateBounds"/>
                    </mxGeometry>
                </mxCell>
                <mxCell id="185" value="" style="shape=partialRectangle;collapsible=0;dropTarget=0;pointerEvents=0;fillColor=none;top=0;left=0;bottom=0;right=0;points=[[0,0.5],[1,0.5]];portConstraint=eastwest;fontSize=14;fontColor=#000000;strokeColor=#009E3F;strokeWidth=2;" parent="178" vertex="1">
                    <mxGeometry y="80" width="200" height="40" as="geometry"/>
                </mxCell>
                <mxCell id="186" value="食物ID" style="shape=partialRectangle;html=1;whiteSpace=wrap;connectable=0;overflow=hidden;fillColor=none;top=0;left=0;bottom=0;right=0;pointerEvents=1;fontSize=14;fontColor=#000000;strokeColor=#009E3F;strokeWidth=2;" parent="185" vertex="1">
                    <mxGeometry width="100" height="40" as="geometry">
                        <mxRectangle width="100" height="40" as="alternateBounds"/>
                    </mxGeometry>
                </mxCell>
                <mxCell id="187" value="int" style="shape=partialRectangle;html=1;whiteSpace=wrap;connectable=0;overflow=hidden;fillColor=none;top=0;left=0;bottom=0;right=0;pointerEvents=1;fontSize=14;fontColor=#000000;strokeColor=#009E3F;strokeWidth=2;" parent="185" vertex="1">
                    <mxGeometry x="100" width="100" height="40" as="geometry">
                        <mxRectangle width="100" height="40" as="alternateBounds"/>
                    </mxGeometry>
                </mxCell>
                <mxCell id="188" value="" style="shape=partialRectangle;collapsible=0;dropTarget=0;pointerEvents=0;fillColor=none;top=0;left=0;bottom=0;right=0;points=[[0,0.5],[1,0.5]];portConstraint=eastwest;fontSize=14;fontColor=#000000;strokeColor=#009E3F;strokeWidth=2;" parent="178" vertex="1">
                    <mxGeometry y="120" width="200" height="40" as="geometry"/>
                </mxCell>
                <mxCell id="189" value="熱量攝取" style="shape=partialRectangle;html=1;whiteSpace=wrap;connectable=0;overflow=hidden;fillColor=none;top=0;left=0;bottom=0;right=0;pointerEvents=1;fontSize=14;fontColor=#000000;strokeColor=#009E3F;strokeWidth=2;" parent="188" vertex="1">
                    <mxGeometry width="100" height="40" as="geometry">
                        <mxRectangle width="100" height="40" as="alternateBounds"/>
                    </mxGeometry>
                </mxCell>
                <mxCell id="190" value="float" style="shape=partialRectangle;html=1;whiteSpace=wrap;connectable=0;overflow=hidden;fillColor=none;top=0;left=0;bottom=0;right=0;pointerEvents=1;fontSize=14;fontColor=#000000;strokeColor=#009E3F;strokeWidth=2;" parent="188" vertex="1">
                    <mxGeometry x="100" width="100" height="40" as="geometry">
                        <mxRectangle width="100" height="40" as="alternateBounds"/>
                    </mxGeometry>
                </mxCell>
                <mxCell id="224" value="" style="shape=table;startSize=0;container=1;collapsible=0;childLayout=tableLayout;fontSize=14;strokeColor=#10739e;strokeWidth=2;fillColor=#b1ddf0;" parent="1" vertex="1">
                    <mxGeometry x="-640" y="520" width="183" height="120" as="geometry"/>
                </mxCell>
                <mxCell id="225" value="" style="shape=partialRectangle;collapsible=0;dropTarget=0;pointerEvents=0;fillColor=none;top=0;left=0;bottom=0;right=0;points=[[0,0.5],[1,0.5]];portConstraint=eastwest;fontSize=14;fontColor=#000000;strokeColor=#009E3F;strokeWidth=2;" parent="224" vertex="1">
                    <mxGeometry width="183" height="40" as="geometry"/>
                </mxCell>
                <mxCell id="226" value="營養分類" style="shape=partialRectangle;html=1;whiteSpace=wrap;connectable=0;overflow=hidden;fillColor=none;top=0;left=0;bottom=0;right=0;pointerEvents=1;fontSize=14;fontColor=#000000;strokeColor=#009E3F;strokeWidth=2;" parent="225" vertex="1">
                    <mxGeometry width="92" height="40" as="geometry">
                        <mxRectangle width="92" height="40" as="alternateBounds"/>
                    </mxGeometry>
                </mxCell>
                <mxCell id="227" value="" style="shape=partialRectangle;html=1;whiteSpace=wrap;connectable=0;overflow=hidden;fillColor=none;top=0;left=0;bottom=0;right=0;pointerEvents=1;fontSize=14;fontColor=#000000;strokeColor=#009E3F;strokeWidth=2;" parent="225" vertex="1">
                    <mxGeometry x="92" width="91" height="40" as="geometry">
                        <mxRectangle width="91" height="40" as="alternateBounds"/>
                    </mxGeometry>
                </mxCell>
                <mxCell id="231" value="" style="shape=partialRectangle;collapsible=0;dropTarget=0;pointerEvents=0;fillColor=none;top=0;left=0;bottom=0;right=0;points=[[0,0.5],[1,0.5]];portConstraint=eastwest;fontSize=14;fontColor=#000000;strokeColor=#009E3F;strokeWidth=2;" parent="224" vertex="1">
                    <mxGeometry y="40" width="183" height="40" as="geometry"/>
                </mxCell>
                <mxCell id="232" value="營養代碼PK" style="shape=partialRectangle;html=1;whiteSpace=wrap;connectable=0;overflow=hidden;fillColor=#e3c800;top=0;left=0;bottom=0;right=0;pointerEvents=1;fontSize=14;fontColor=#000000;strokeColor=#B09500;strokeWidth=2;" parent="231" vertex="1">
                    <mxGeometry width="92" height="40" as="geometry">
                        <mxRectangle width="92" height="40" as="alternateBounds"/>
                    </mxGeometry>
                </mxCell>
                <mxCell id="233" value="varchar" style="shape=partialRectangle;html=1;whiteSpace=wrap;connectable=0;overflow=hidden;fillColor=none;top=0;left=0;bottom=0;right=0;pointerEvents=1;fontSize=14;fontColor=#000000;strokeColor=#009E3F;strokeWidth=2;" parent="231" vertex="1">
                    <mxGeometry x="92" width="91" height="40" as="geometry">
                        <mxRectangle width="91" height="40" as="alternateBounds"/>
                    </mxGeometry>
                </mxCell>
                <mxCell id="234" value="" style="shape=partialRectangle;collapsible=0;dropTarget=0;pointerEvents=0;fillColor=none;top=0;left=0;bottom=0;right=0;points=[[0,0.5],[1,0.5]];portConstraint=eastwest;fontSize=14;fontColor=#000000;strokeColor=#009E3F;strokeWidth=2;" parent="224" vertex="1">
                    <mxGeometry y="80" width="183" height="40" as="geometry"/>
                </mxCell>
                <mxCell id="235" value="營養組合" style="shape=partialRectangle;html=1;whiteSpace=wrap;connectable=0;overflow=hidden;fillColor=none;top=0;left=0;bottom=0;right=0;pointerEvents=1;fontSize=14;fontColor=#000000;strokeColor=#009E3F;strokeWidth=2;" parent="234" vertex="1">
                    <mxGeometry width="92" height="40" as="geometry">
                        <mxRectangle width="92" height="40" as="alternateBounds"/>
                    </mxGeometry>
                </mxCell>
                <mxCell id="236" value="varchar" style="shape=partialRectangle;html=1;whiteSpace=wrap;connectable=0;overflow=hidden;fillColor=none;top=0;left=0;bottom=0;right=0;pointerEvents=1;fontSize=14;fontColor=#000000;strokeColor=#009E3F;strokeWidth=2;" parent="234" vertex="1">
                    <mxGeometry x="92" width="91" height="40" as="geometry">
                        <mxRectangle width="91" height="40" as="alternateBounds"/>
                    </mxGeometry>
                </mxCell>
                <mxCell id="237" value="&lt;font color=&quot;#000000&quot;&gt;食品營養成分資料集&lt;/font&gt;" style="rounded=0;whiteSpace=wrap;html=1;fontSize=14;strokeColor=#10739e;strokeWidth=2;fillColor=#b1ddf0;" parent="1" vertex="1">
                    <mxGeometry x="-310" y="-1270" width="240" height="280" as="geometry"/>
                </mxCell>
                <mxCell id="239" value="" style="shape=table;startSize=0;container=1;collapsible=0;childLayout=tableLayout;fontSize=14;strokeColor=#10739e;strokeWidth=2;fillColor=#b1ddf0;" parent="1" vertex="1">
                    <mxGeometry x="-1200" width="200" height="360" as="geometry"/>
                </mxCell>
                <mxCell id="240" value="" style="shape=partialRectangle;collapsible=0;dropTarget=0;pointerEvents=0;fillColor=none;top=0;left=0;bottom=0;right=0;points=[[0,0.5],[1,0.5]];portConstraint=eastwest;fontSize=14;fontColor=#000000;strokeColor=#009E3F;strokeWidth=2;" parent="239" vertex="1">
                    <mxGeometry width="200" height="40" as="geometry"/>
                </mxCell>
                <mxCell id="241" value="訂單" style="shape=partialRectangle;html=1;whiteSpace=wrap;connectable=0;overflow=hidden;fillColor=none;top=0;left=0;bottom=0;right=0;pointerEvents=1;fontSize=14;fontColor=#000000;strokeColor=#009E3F;strokeWidth=2;" parent="240" vertex="1">
                    <mxGeometry width="100" height="40" as="geometry">
                        <mxRectangle width="100" height="40" as="alternateBounds"/>
                    </mxGeometry>
                </mxCell>
                <mxCell id="242" value="" style="shape=partialRectangle;html=1;whiteSpace=wrap;connectable=0;overflow=hidden;fillColor=none;top=0;left=0;bottom=0;right=0;pointerEvents=1;fontSize=14;fontColor=#000000;strokeColor=#009E3F;strokeWidth=2;" parent="240" vertex="1">
                    <mxGeometry x="100" width="100" height="40" as="geometry">
                        <mxRectangle width="100" height="40" as="alternateBounds"/>
                    </mxGeometry>
                </mxCell>
                <mxCell id="243" value="" style="shape=partialRectangle;collapsible=0;dropTarget=0;pointerEvents=0;fillColor=none;top=0;left=0;bottom=0;right=0;points=[[0,0.5],[1,0.5]];portConstraint=eastwest;fontSize=14;fontColor=#000000;strokeColor=#009E3F;strokeWidth=2;" parent="239" vertex="1">
                    <mxGeometry y="40" width="200" height="40" as="geometry"/>
                </mxCell>
                <mxCell id="244" value="流水號PK" style="shape=partialRectangle;html=1;whiteSpace=wrap;connectable=0;overflow=hidden;fillColor=#e3c800;top=0;left=0;bottom=0;right=0;pointerEvents=1;fontSize=14;fontColor=#000000;strokeColor=#B09500;strokeWidth=2;" parent="243" vertex="1">
                    <mxGeometry width="100" height="40" as="geometry">
                        <mxRectangle width="100" height="40" as="alternateBounds"/>
                    </mxGeometry>
                </mxCell>
                <mxCell id="245" value="int" style="shape=partialRectangle;html=1;whiteSpace=wrap;connectable=0;overflow=hidden;fillColor=none;top=0;left=0;bottom=0;right=0;pointerEvents=1;fontSize=14;fontColor=#000000;strokeColor=#009E3F;strokeWidth=2;" parent="243" vertex="1">
                    <mxGeometry x="100" width="100" height="40" as="geometry">
                        <mxRectangle width="100" height="40" as="alternateBounds"/>
                    </mxGeometry>
                </mxCell>
                <mxCell id="246" value="" style="shape=partialRectangle;collapsible=0;dropTarget=0;pointerEvents=0;fillColor=none;top=0;left=0;bottom=0;right=0;points=[[0,0.5],[1,0.5]];portConstraint=eastwest;fontSize=14;fontColor=#000000;strokeColor=#009E3F;strokeWidth=2;" parent="239" vertex="1">
                    <mxGeometry y="80" width="200" height="40" as="geometry"/>
                </mxCell>
                <mxCell id="247" value="會員編號FK" style="shape=partialRectangle;html=1;whiteSpace=wrap;connectable=0;overflow=hidden;fillColor=none;top=0;left=0;bottom=0;right=0;pointerEvents=1;fontSize=14;fontColor=#000000;strokeColor=#009E3F;strokeWidth=2;" parent="246" vertex="1">
                    <mxGeometry width="100" height="40" as="geometry">
                        <mxRectangle width="100" height="40" as="alternateBounds"/>
                    </mxGeometry>
                </mxCell>
                <mxCell id="248" value="int" style="shape=partialRectangle;html=1;whiteSpace=wrap;connectable=0;overflow=hidden;fillColor=none;top=0;left=0;bottom=0;right=0;pointerEvents=1;fontSize=14;fontColor=#000000;strokeColor=#009E3F;strokeWidth=2;" parent="246" vertex="1">
                    <mxGeometry x="100" width="100" height="40" as="geometry">
                        <mxRectangle width="100" height="40" as="alternateBounds"/>
                    </mxGeometry>
                </mxCell>
                <mxCell id="249" value="" style="shape=partialRectangle;collapsible=0;dropTarget=0;pointerEvents=0;fillColor=none;top=0;left=0;bottom=0;right=0;points=[[0,0.5],[1,0.5]];portConstraint=eastwest;fontSize=14;fontColor=#000000;strokeColor=#009E3F;strokeWidth=2;" parent="239" vertex="1">
                    <mxGeometry y="120" width="200" height="40" as="geometry"/>
                </mxCell>
                <mxCell id="250" value="下單時間" style="shape=partialRectangle;html=1;whiteSpace=wrap;connectable=0;overflow=hidden;fillColor=none;top=0;left=0;bottom=0;right=0;pointerEvents=1;fontSize=14;fontColor=#000000;strokeColor=#009E3F;strokeWidth=2;" parent="249" vertex="1">
                    <mxGeometry width="100" height="40" as="geometry">
                        <mxRectangle width="100" height="40" as="alternateBounds"/>
                    </mxGeometry>
                </mxCell>
                <mxCell id="251" value="date" style="shape=partialRectangle;html=1;whiteSpace=wrap;connectable=0;overflow=hidden;fillColor=none;top=0;left=0;bottom=0;right=0;pointerEvents=1;fontSize=14;fontColor=#000000;strokeColor=#009E3F;strokeWidth=2;" parent="249" vertex="1">
                    <mxGeometry x="100" width="100" height="40" as="geometry">
                        <mxRectangle width="100" height="40" as="alternateBounds"/>
                    </mxGeometry>
                </mxCell>
                <mxCell id="252" value="" style="shape=partialRectangle;collapsible=0;dropTarget=0;pointerEvents=0;fillColor=none;top=0;left=0;bottom=0;right=0;points=[[0,0.5],[1,0.5]];portConstraint=eastwest;fontSize=14;fontColor=#000000;strokeColor=#009E3F;strokeWidth=2;" parent="239" vertex="1">
                    <mxGeometry y="160" width="200" height="40" as="geometry"/>
                </mxCell>
                <mxCell id="253" value="配送到達時間" style="shape=partialRectangle;html=1;whiteSpace=wrap;connectable=0;overflow=hidden;fillColor=none;top=0;left=0;bottom=0;right=0;pointerEvents=1;fontSize=14;fontColor=#000000;strokeColor=#009E3F;strokeWidth=2;" parent="252" vertex="1">
                    <mxGeometry width="100" height="40" as="geometry">
                        <mxRectangle width="100" height="40" as="alternateBounds"/>
                    </mxGeometry>
                </mxCell>
                <mxCell id="254" value="date" style="shape=partialRectangle;html=1;whiteSpace=wrap;connectable=0;overflow=hidden;fillColor=none;top=0;left=0;bottom=0;right=0;pointerEvents=1;fontSize=14;fontColor=#000000;strokeColor=#009E3F;strokeWidth=2;" parent="252" vertex="1">
                    <mxGeometry x="100" width="100" height="40" as="geometry">
                        <mxRectangle width="100" height="40" as="alternateBounds"/>
                    </mxGeometry>
                </mxCell>
                <mxCell id="255" value="" style="shape=partialRectangle;collapsible=0;dropTarget=0;pointerEvents=0;fillColor=none;top=0;left=0;bottom=0;right=0;points=[[0,0.5],[1,0.5]];portConstraint=eastwest;fontSize=14;fontColor=#000000;strokeColor=#009E3F;strokeWidth=2;" parent="239" vertex="1">
                    <mxGeometry y="200" width="200" height="40" as="geometry"/>
                </mxCell>
                <mxCell id="256" value="郵遞區號" style="shape=partialRectangle;html=1;whiteSpace=wrap;connectable=0;overflow=hidden;fillColor=none;top=0;left=0;bottom=0;right=0;pointerEvents=1;fontSize=14;fontColor=#000000;strokeColor=#009E3F;strokeWidth=2;" parent="255" vertex="1">
                    <mxGeometry width="100" height="40" as="geometry">
                        <mxRectangle width="100" height="40" as="alternateBounds"/>
                    </mxGeometry>
                </mxCell>
                <mxCell id="257" value="varchar" style="shape=partialRectangle;html=1;whiteSpace=wrap;connectable=0;overflow=hidden;fillColor=none;top=0;left=0;bottom=0;right=0;pointerEvents=1;fontSize=14;fontColor=#000000;strokeColor=#009E3F;strokeWidth=2;" parent="255" vertex="1">
                    <mxGeometry x="100" width="100" height="40" as="geometry">
                        <mxRectangle width="100" height="40" as="alternateBounds"/>
                    </mxGeometry>
                </mxCell>
                <mxCell id="258" value="" style="shape=partialRectangle;collapsible=0;dropTarget=0;pointerEvents=0;fillColor=none;top=0;left=0;bottom=0;right=0;points=[[0,0.5],[1,0.5]];portConstraint=eastwest;fontSize=14;fontColor=#000000;strokeColor=#009E3F;strokeWidth=2;" parent="239" vertex="1">
                    <mxGeometry y="240" width="200" height="40" as="geometry"/>
                </mxCell>
                <mxCell id="259" value="地址" style="shape=partialRectangle;html=1;whiteSpace=wrap;connectable=0;overflow=hidden;fillColor=none;top=0;left=0;bottom=0;right=0;pointerEvents=1;fontSize=14;fontColor=#000000;strokeColor=#009E3F;strokeWidth=2;" parent="258" vertex="1">
                    <mxGeometry width="100" height="40" as="geometry">
                        <mxRectangle width="100" height="40" as="alternateBounds"/>
                    </mxGeometry>
                </mxCell>
                <mxCell id="260" value="varchar" style="shape=partialRectangle;html=1;whiteSpace=wrap;connectable=0;overflow=hidden;fillColor=none;top=0;left=0;bottom=0;right=0;pointerEvents=1;fontSize=14;fontColor=#000000;strokeColor=#009E3F;strokeWidth=2;" parent="258" vertex="1">
                    <mxGeometry x="100" width="100" height="40" as="geometry">
                        <mxRectangle width="100" height="40" as="alternateBounds"/>
                    </mxGeometry>
                </mxCell>
                <mxCell id="261" value="" style="shape=partialRectangle;collapsible=0;dropTarget=0;pointerEvents=0;fillColor=none;top=0;left=0;bottom=0;right=0;points=[[0,0.5],[1,0.5]];portConstraint=eastwest;fontSize=14;fontColor=#000000;strokeColor=#009E3F;strokeWidth=2;" parent="239" vertex="1">
                    <mxGeometry y="280" width="200" height="40" as="geometry"/>
                </mxCell>
                <mxCell id="262" value="縣市" style="shape=partialRectangle;html=1;whiteSpace=wrap;connectable=0;overflow=hidden;fillColor=none;top=0;left=0;bottom=0;right=0;pointerEvents=1;fontSize=14;fontColor=#000000;strokeColor=#009E3F;strokeWidth=2;" parent="261" vertex="1">
                    <mxGeometry width="100" height="40" as="geometry">
                        <mxRectangle width="100" height="40" as="alternateBounds"/>
                    </mxGeometry>
                </mxCell>
                <mxCell id="263" value="varchar" style="shape=partialRectangle;html=1;whiteSpace=wrap;connectable=0;overflow=hidden;fillColor=none;top=0;left=0;bottom=0;right=0;pointerEvents=1;fontSize=14;fontColor=#000000;strokeColor=#009E3F;strokeWidth=2;" parent="261" vertex="1">
                    <mxGeometry x="100" width="100" height="40" as="geometry">
                        <mxRectangle width="100" height="40" as="alternateBounds"/>
                    </mxGeometry>
                </mxCell>
                <mxCell id="264" value="" style="shape=partialRectangle;collapsible=0;dropTarget=0;pointerEvents=0;fillColor=none;top=0;left=0;bottom=0;right=0;points=[[0,0.5],[1,0.5]];portConstraint=eastwest;fontSize=14;fontColor=#000000;strokeColor=#009E3F;strokeWidth=2;" parent="239" vertex="1">
                    <mxGeometry y="320" width="200" height="40" as="geometry"/>
                </mxCell>
                <mxCell id="265" value="狀態" style="shape=partialRectangle;html=1;whiteSpace=wrap;connectable=0;overflow=hidden;fillColor=none;top=0;left=0;bottom=0;right=0;pointerEvents=1;fontSize=14;fontColor=#000000;strokeColor=#009E3F;strokeWidth=2;" parent="264" vertex="1">
                    <mxGeometry width="100" height="40" as="geometry">
                        <mxRectangle width="100" height="40" as="alternateBounds"/>
                    </mxGeometry>
                </mxCell>
                <mxCell id="266" value="varchar" style="shape=partialRectangle;html=1;whiteSpace=wrap;connectable=0;overflow=hidden;fillColor=none;top=0;left=0;bottom=0;right=0;pointerEvents=1;fontSize=14;fontColor=#000000;strokeColor=#009E3F;strokeWidth=2;" parent="264" vertex="1">
                    <mxGeometry x="100" width="100" height="40" as="geometry">
                        <mxRectangle width="100" height="40" as="alternateBounds"/>
                    </mxGeometry>
                </mxCell>
                <mxCell id="267" value="" style="shape=table;startSize=0;container=1;collapsible=0;childLayout=tableLayout;fontSize=14;strokeColor=#10739e;strokeWidth=2;fillColor=#b1ddf0;" parent="1" vertex="1">
                    <mxGeometry x="-920" width="190" height="200" as="geometry"/>
                </mxCell>
                <mxCell id="268" value="" style="shape=partialRectangle;collapsible=0;dropTarget=0;pointerEvents=0;fillColor=none;top=0;left=0;bottom=0;right=0;points=[[0,0.5],[1,0.5]];portConstraint=eastwest;fontSize=14;fontColor=#000000;strokeColor=#009E3F;strokeWidth=2;" parent="267" vertex="1">
                    <mxGeometry width="190" height="40" as="geometry"/>
                </mxCell>
                <mxCell id="269" value="訂單明細" style="shape=partialRectangle;html=1;whiteSpace=wrap;connectable=0;overflow=hidden;fillColor=none;top=0;left=0;bottom=0;right=0;pointerEvents=1;fontSize=14;fontColor=#000000;strokeColor=#009E3F;strokeWidth=2;" parent="268" vertex="1">
                    <mxGeometry width="95" height="40" as="geometry">
                        <mxRectangle width="95" height="40" as="alternateBounds"/>
                    </mxGeometry>
                </mxCell>
                <mxCell id="270" value="" style="shape=partialRectangle;html=1;whiteSpace=wrap;connectable=0;overflow=hidden;fillColor=none;top=0;left=0;bottom=0;right=0;pointerEvents=1;fontSize=14;fontColor=#000000;strokeColor=#009E3F;strokeWidth=2;" parent="268" vertex="1">
                    <mxGeometry x="95" width="95" height="40" as="geometry">
                        <mxRectangle width="95" height="40" as="alternateBounds"/>
                    </mxGeometry>
                </mxCell>
                <mxCell id="271" value="" style="shape=partialRectangle;collapsible=0;dropTarget=0;pointerEvents=0;fillColor=none;top=0;left=0;bottom=0;right=0;points=[[0,0.5],[1,0.5]];portConstraint=eastwest;fontSize=14;fontColor=#000000;strokeColor=#009E3F;strokeWidth=2;" parent="267" vertex="1">
                    <mxGeometry y="40" width="190" height="40" as="geometry"/>
                </mxCell>
                <mxCell id="272" value="流水號FK" style="shape=partialRectangle;html=1;whiteSpace=wrap;connectable=0;overflow=hidden;fillColor=none;top=0;left=0;bottom=0;right=0;pointerEvents=1;fontSize=14;fontColor=#000000;strokeColor=#009E3F;strokeWidth=2;" parent="271" vertex="1">
                    <mxGeometry width="95" height="40" as="geometry">
                        <mxRectangle width="95" height="40" as="alternateBounds"/>
                    </mxGeometry>
                </mxCell>
                <mxCell id="273" value="int" style="shape=partialRectangle;html=1;whiteSpace=wrap;connectable=0;overflow=hidden;fillColor=none;top=0;left=0;bottom=0;right=0;pointerEvents=1;fontSize=14;fontColor=#000000;strokeColor=#009E3F;strokeWidth=2;" parent="271" vertex="1">
                    <mxGeometry x="95" width="95" height="40" as="geometry">
                        <mxRectangle width="95" height="40" as="alternateBounds"/>
                    </mxGeometry>
                </mxCell>
                <mxCell id="274" value="" style="shape=partialRectangle;collapsible=0;dropTarget=0;pointerEvents=0;fillColor=none;top=0;left=0;bottom=0;right=0;points=[[0,0.5],[1,0.5]];portConstraint=eastwest;fontSize=14;fontColor=#000000;strokeColor=#009E3F;strokeWidth=2;" parent="267" vertex="1">
                    <mxGeometry y="80" width="190" height="40" as="geometry"/>
                </mxCell>
                <mxCell id="275" value="商品編號FK" style="shape=partialRectangle;html=1;whiteSpace=wrap;connectable=0;overflow=hidden;fillColor=none;top=0;left=0;bottom=0;right=0;pointerEvents=1;fontSize=14;fontColor=#000000;strokeColor=#009E3F;strokeWidth=2;" parent="274" vertex="1">
                    <mxGeometry width="95" height="40" as="geometry">
                        <mxRectangle width="95" height="40" as="alternateBounds"/>
                    </mxGeometry>
                </mxCell>
                <mxCell id="276" value="int" style="shape=partialRectangle;html=1;whiteSpace=wrap;connectable=0;overflow=hidden;fillColor=none;top=0;left=0;bottom=0;right=0;pointerEvents=1;fontSize=14;fontColor=#000000;strokeColor=#009E3F;strokeWidth=2;" parent="274" vertex="1">
                    <mxGeometry x="95" width="95" height="40" as="geometry">
                        <mxRectangle width="95" height="40" as="alternateBounds"/>
                    </mxGeometry>
                </mxCell>
                <mxCell id="277" value="" style="shape=partialRectangle;collapsible=0;dropTarget=0;pointerEvents=0;fillColor=none;top=0;left=0;bottom=0;right=0;points=[[0,0.5],[1,0.5]];portConstraint=eastwest;fontSize=14;fontColor=#000000;strokeColor=#009E3F;strokeWidth=2;" parent="267" vertex="1">
                    <mxGeometry y="120" width="190" height="40" as="geometry"/>
                </mxCell>
                <mxCell id="278" value="價格" style="shape=partialRectangle;html=1;whiteSpace=wrap;connectable=0;overflow=hidden;fillColor=none;top=0;left=0;bottom=0;right=0;pointerEvents=1;fontSize=14;fontColor=#000000;strokeColor=#009E3F;strokeWidth=2;" parent="277" vertex="1">
                    <mxGeometry width="95" height="40" as="geometry">
                        <mxRectangle width="95" height="40" as="alternateBounds"/>
                    </mxGeometry>
                </mxCell>
                <mxCell id="279" value="int" style="shape=partialRectangle;html=1;whiteSpace=wrap;connectable=0;overflow=hidden;fillColor=none;top=0;left=0;bottom=0;right=0;pointerEvents=1;fontSize=14;fontColor=#000000;strokeColor=#009E3F;strokeWidth=2;" parent="277" vertex="1">
                    <mxGeometry x="95" width="95" height="40" as="geometry">
                        <mxRectangle width="95" height="40" as="alternateBounds"/>
                    </mxGeometry>
                </mxCell>
                <mxCell id="280" value="" style="shape=partialRectangle;collapsible=0;dropTarget=0;pointerEvents=0;fillColor=none;top=0;left=0;bottom=0;right=0;points=[[0,0.5],[1,0.5]];portConstraint=eastwest;fontSize=14;fontColor=#000000;strokeColor=#009E3F;strokeWidth=2;" parent="267" vertex="1">
                    <mxGeometry y="160" width="190" height="40" as="geometry"/>
                </mxCell>
                <mxCell id="281" value="數量" style="shape=partialRectangle;html=1;whiteSpace=wrap;connectable=0;overflow=hidden;fillColor=none;top=0;left=0;bottom=0;right=0;pointerEvents=1;fontSize=14;fontColor=#000000;strokeColor=#009E3F;strokeWidth=2;" parent="280" vertex="1">
                    <mxGeometry width="95" height="40" as="geometry">
                        <mxRectangle width="95" height="40" as="alternateBounds"/>
                    </mxGeometry>
                </mxCell>
                <mxCell id="282" value="int" style="shape=partialRectangle;html=1;whiteSpace=wrap;connectable=0;overflow=hidden;fillColor=none;top=0;left=0;bottom=0;right=0;pointerEvents=1;fontSize=14;fontColor=#000000;strokeColor=#009E3F;strokeWidth=2;" parent="280" vertex="1">
                    <mxGeometry x="95" width="95" height="40" as="geometry">
                        <mxRectangle width="95" height="40" as="alternateBounds"/>
                    </mxGeometry>
                </mxCell>
                <mxCell id="292" value="" style="shape=table;startSize=0;container=1;collapsible=0;childLayout=tableLayout;fontSize=14;strokeColor=#10739e;strokeWidth=2;fillColor=#b1ddf0;" parent="1" vertex="1">
                    <mxGeometry x="-920" y="270" width="181.5" height="400" as="geometry"/>
                </mxCell>
                <mxCell id="293" value="" style="shape=partialRectangle;collapsible=0;dropTarget=0;pointerEvents=0;fillColor=none;top=0;left=0;bottom=0;right=0;points=[[0,0.5],[1,0.5]];portConstraint=eastwest;fontSize=14;fontColor=#000000;strokeColor=#009E3F;strokeWidth=2;" parent="292" vertex="1">
                    <mxGeometry width="181.5" height="40" as="geometry"/>
                </mxCell>
                <mxCell id="294" value="供應商" style="shape=partialRectangle;html=1;whiteSpace=wrap;connectable=0;overflow=hidden;fillColor=none;top=0;left=0;bottom=0;right=0;pointerEvents=1;fontSize=14;fontColor=#000000;strokeColor=#009E3F;strokeWidth=2;" parent="293" vertex="1">
                    <mxGeometry width="91" height="40" as="geometry">
                        <mxRectangle width="91" height="40" as="alternateBounds"/>
                    </mxGeometry>
                </mxCell>
                <mxCell id="295" value="" style="shape=partialRectangle;html=1;whiteSpace=wrap;connectable=0;overflow=hidden;fillColor=none;top=0;left=0;bottom=0;right=0;pointerEvents=1;fontSize=14;fontColor=#000000;strokeColor=#009E3F;strokeWidth=2;" parent="293" vertex="1">
                    <mxGeometry x="91" width="91" height="40" as="geometry">
                        <mxRectangle width="91" height="40" as="alternateBounds"/>
                    </mxGeometry>
                </mxCell>
                <mxCell id="296" value="" style="shape=partialRectangle;collapsible=0;dropTarget=0;pointerEvents=0;fillColor=none;top=0;left=0;bottom=0;right=0;points=[[0,0.5],[1,0.5]];portConstraint=eastwest;fontSize=14;fontColor=#000000;strokeColor=#009E3F;strokeWidth=2;" parent="292" vertex="1">
                    <mxGeometry y="40" width="181.5" height="40" as="geometry"/>
                </mxCell>
                <mxCell id="297" value="流水號PK" style="shape=partialRectangle;html=1;whiteSpace=wrap;connectable=0;overflow=hidden;fillColor=#e3c800;top=0;left=0;bottom=0;right=0;pointerEvents=1;fontSize=14;fontColor=#000000;strokeColor=#B09500;strokeWidth=2;" parent="296" vertex="1">
                    <mxGeometry width="91" height="40" as="geometry">
                        <mxRectangle width="91" height="40" as="alternateBounds"/>
                    </mxGeometry>
                </mxCell>
                <mxCell id="298" value="int" style="shape=partialRectangle;html=1;whiteSpace=wrap;connectable=0;overflow=hidden;fillColor=none;top=0;left=0;bottom=0;right=0;pointerEvents=1;fontSize=14;fontColor=#000000;strokeColor=#009E3F;strokeWidth=2;" parent="296" vertex="1">
                    <mxGeometry x="91" width="91" height="40" as="geometry">
                        <mxRectangle width="91" height="40" as="alternateBounds"/>
                    </mxGeometry>
                </mxCell>
                <mxCell id="299" value="" style="shape=partialRectangle;collapsible=0;dropTarget=0;pointerEvents=0;fillColor=none;top=0;left=0;bottom=0;right=0;points=[[0,0.5],[1,0.5]];portConstraint=eastwest;fontSize=14;fontColor=#000000;strokeColor=#009E3F;strokeWidth=2;" parent="292" vertex="1">
                    <mxGeometry y="80" width="181.5" height="40" as="geometry"/>
                </mxCell>
                <mxCell id="300" value="公司名稱" style="shape=partialRectangle;html=1;whiteSpace=wrap;connectable=0;overflow=hidden;fillColor=none;top=0;left=0;bottom=0;right=0;pointerEvents=1;fontSize=14;fontColor=#000000;strokeColor=#009E3F;strokeWidth=2;" parent="299" vertex="1">
                    <mxGeometry width="91" height="40" as="geometry">
                        <mxRectangle width="91" height="40" as="alternateBounds"/>
                    </mxGeometry>
                </mxCell>
                <mxCell id="301" value="varchar" style="shape=partialRectangle;html=1;whiteSpace=wrap;connectable=0;overflow=hidden;fillColor=none;top=0;left=0;bottom=0;right=0;pointerEvents=1;fontSize=14;fontColor=#000000;strokeColor=#009E3F;strokeWidth=2;" parent="299" vertex="1">
                    <mxGeometry x="91" width="91" height="40" as="geometry">
                        <mxRectangle width="91" height="40" as="alternateBounds"/>
                    </mxGeometry>
                </mxCell>
                <mxCell id="302" value="" style="shape=partialRectangle;collapsible=0;dropTarget=0;pointerEvents=0;fillColor=none;top=0;left=0;bottom=0;right=0;points=[[0,0.5],[1,0.5]];portConstraint=eastwest;fontSize=14;fontColor=#000000;strokeColor=#009E3F;strokeWidth=2;" parent="292" vertex="1">
                    <mxGeometry y="120" width="181.5" height="40" as="geometry"/>
                </mxCell>
                <mxCell id="303" value="聯絡人" style="shape=partialRectangle;html=1;whiteSpace=wrap;connectable=0;overflow=hidden;fillColor=none;top=0;left=0;bottom=0;right=0;pointerEvents=1;fontSize=14;fontColor=#000000;strokeColor=#009E3F;strokeWidth=2;" parent="302" vertex="1">
                    <mxGeometry width="91" height="40" as="geometry">
                        <mxRectangle width="91" height="40" as="alternateBounds"/>
                    </mxGeometry>
                </mxCell>
                <mxCell id="304" value="&lt;span&gt;varchar&lt;/span&gt;" style="shape=partialRectangle;html=1;whiteSpace=wrap;connectable=0;overflow=hidden;fillColor=none;top=0;left=0;bottom=0;right=0;pointerEvents=1;fontSize=14;fontColor=#000000;strokeColor=#009E3F;strokeWidth=2;" parent="302" vertex="1">
                    <mxGeometry x="91" width="91" height="40" as="geometry">
                        <mxRectangle width="91" height="40" as="alternateBounds"/>
                    </mxGeometry>
                </mxCell>
                <mxCell id="305" value="" style="shape=partialRectangle;collapsible=0;dropTarget=0;pointerEvents=0;fillColor=none;top=0;left=0;bottom=0;right=0;points=[[0,0.5],[1,0.5]];portConstraint=eastwest;fontSize=14;fontColor=#000000;strokeColor=#009E3F;strokeWidth=2;" parent="292" vertex="1">
                    <mxGeometry y="160" width="181.5" height="40" as="geometry"/>
                </mxCell>
                <mxCell id="306" value="職位" style="shape=partialRectangle;html=1;whiteSpace=wrap;connectable=0;overflow=hidden;fillColor=none;top=0;left=0;bottom=0;right=0;pointerEvents=1;fontSize=14;fontColor=#000000;strokeColor=#009E3F;strokeWidth=2;" parent="305" vertex="1">
                    <mxGeometry width="91" height="40" as="geometry">
                        <mxRectangle width="91" height="40" as="alternateBounds"/>
                    </mxGeometry>
                </mxCell>
                <mxCell id="307" value="&lt;span&gt;varchar&lt;/span&gt;" style="shape=partialRectangle;html=1;whiteSpace=wrap;connectable=0;overflow=hidden;fillColor=none;top=0;left=0;bottom=0;right=0;pointerEvents=1;fontSize=14;fontColor=#000000;strokeColor=#009E3F;strokeWidth=2;" parent="305" vertex="1">
                    <mxGeometry x="91" width="91" height="40" as="geometry">
                        <mxRectangle width="91" height="40" as="alternateBounds"/>
                    </mxGeometry>
                </mxCell>
                <mxCell id="308" value="" style="shape=partialRectangle;collapsible=0;dropTarget=0;pointerEvents=0;fillColor=none;top=0;left=0;bottom=0;right=0;points=[[0,0.5],[1,0.5]];portConstraint=eastwest;fontSize=14;fontColor=#000000;strokeColor=#009E3F;strokeWidth=2;" parent="292" vertex="1">
                    <mxGeometry y="200" width="181.5" height="40" as="geometry"/>
                </mxCell>
                <mxCell id="309" value="電話" style="shape=partialRectangle;html=1;whiteSpace=wrap;connectable=0;overflow=hidden;fillColor=none;top=0;left=0;bottom=0;right=0;pointerEvents=1;fontSize=14;fontColor=#000000;strokeColor=#009E3F;strokeWidth=2;" parent="308" vertex="1">
                    <mxGeometry width="91" height="40" as="geometry">
                        <mxRectangle width="91" height="40" as="alternateBounds"/>
                    </mxGeometry>
                </mxCell>
                <mxCell id="310" value="&lt;span&gt;varchar&lt;/span&gt;" style="shape=partialRectangle;html=1;whiteSpace=wrap;connectable=0;overflow=hidden;fillColor=none;top=0;left=0;bottom=0;right=0;pointerEvents=1;fontSize=14;fontColor=#000000;strokeColor=#009E3F;strokeWidth=2;" parent="308" vertex="1">
                    <mxGeometry x="91" width="91" height="40" as="geometry">
                        <mxRectangle width="91" height="40" as="alternateBounds"/>
                    </mxGeometry>
                </mxCell>
                <mxCell id="311" value="" style="shape=partialRectangle;collapsible=0;dropTarget=0;pointerEvents=0;fillColor=none;top=0;left=0;bottom=0;right=0;points=[[0,0.5],[1,0.5]];portConstraint=eastwest;fontSize=14;fontColor=#000000;strokeColor=#009E3F;strokeWidth=2;" parent="292" vertex="1">
                    <mxGeometry y="240" width="181.5" height="40" as="geometry"/>
                </mxCell>
                <mxCell id="312" value="傳真" style="shape=partialRectangle;html=1;whiteSpace=wrap;connectable=0;overflow=hidden;fillColor=none;top=0;left=0;bottom=0;right=0;pointerEvents=1;fontSize=14;fontColor=#000000;strokeColor=#009E3F;strokeWidth=2;" parent="311" vertex="1">
                    <mxGeometry width="91" height="40" as="geometry">
                        <mxRectangle width="91" height="40" as="alternateBounds"/>
                    </mxGeometry>
                </mxCell>
                <mxCell id="313" value="&lt;span&gt;varchar&lt;/span&gt;" style="shape=partialRectangle;html=1;whiteSpace=wrap;connectable=0;overflow=hidden;fillColor=none;top=0;left=0;bottom=0;right=0;pointerEvents=1;fontSize=14;fontColor=#000000;strokeColor=#009E3F;strokeWidth=2;" parent="311" vertex="1">
                    <mxGeometry x="91" width="91" height="40" as="geometry">
                        <mxRectangle width="91" height="40" as="alternateBounds"/>
                    </mxGeometry>
                </mxCell>
                <mxCell id="314" value="" style="shape=partialRectangle;collapsible=0;dropTarget=0;pointerEvents=0;fillColor=none;top=0;left=0;bottom=0;right=0;points=[[0,0.5],[1,0.5]];portConstraint=eastwest;fontSize=14;fontColor=#000000;strokeColor=#009E3F;strokeWidth=2;" parent="292" vertex="1">
                    <mxGeometry y="280" width="181.5" height="40" as="geometry"/>
                </mxCell>
                <mxCell id="315" value="公司地址" style="shape=partialRectangle;html=1;whiteSpace=wrap;connectable=0;overflow=hidden;fillColor=none;top=0;left=0;bottom=0;right=0;pointerEvents=1;fontSize=14;fontColor=#000000;strokeColor=#009E3F;strokeWidth=2;" parent="314" vertex="1">
                    <mxGeometry width="91" height="40" as="geometry">
                        <mxRectangle width="91" height="40" as="alternateBounds"/>
                    </mxGeometry>
                </mxCell>
                <mxCell id="316" value="&lt;span&gt;varchar&lt;/span&gt;" style="shape=partialRectangle;html=1;whiteSpace=wrap;connectable=0;overflow=hidden;fillColor=none;top=0;left=0;bottom=0;right=0;pointerEvents=1;fontSize=14;fontColor=#000000;strokeColor=#009E3F;strokeWidth=2;" parent="314" vertex="1">
                    <mxGeometry x="91" width="91" height="40" as="geometry">
                        <mxRectangle width="91" height="40" as="alternateBounds"/>
                    </mxGeometry>
                </mxCell>
                <mxCell id="317" value="" style="shape=partialRectangle;collapsible=0;dropTarget=0;pointerEvents=0;fillColor=none;top=0;left=0;bottom=0;right=0;points=[[0,0.5],[1,0.5]];portConstraint=eastwest;fontSize=14;fontColor=#000000;strokeColor=#009E3F;strokeWidth=2;" parent="292" vertex="1">
                    <mxGeometry y="320" width="181.5" height="40" as="geometry"/>
                </mxCell>
                <mxCell id="318" value="郵遞區號" style="shape=partialRectangle;html=1;whiteSpace=wrap;connectable=0;overflow=hidden;fillColor=none;top=0;left=0;bottom=0;right=0;pointerEvents=1;fontSize=14;fontColor=#000000;strokeColor=#009E3F;strokeWidth=2;" parent="317" vertex="1">
                    <mxGeometry width="91" height="40" as="geometry">
                        <mxRectangle width="91" height="40" as="alternateBounds"/>
                    </mxGeometry>
                </mxCell>
                <mxCell id="319" value="&lt;span&gt;varchar&lt;/span&gt;" style="shape=partialRectangle;html=1;whiteSpace=wrap;connectable=0;overflow=hidden;fillColor=none;top=0;left=0;bottom=0;right=0;pointerEvents=1;fontSize=14;fontColor=#000000;strokeColor=#009E3F;strokeWidth=2;" parent="317" vertex="1">
                    <mxGeometry x="91" width="91" height="40" as="geometry">
                        <mxRectangle width="91" height="40" as="alternateBounds"/>
                    </mxGeometry>
                </mxCell>
                <mxCell id="320" value="" style="shape=partialRectangle;collapsible=0;dropTarget=0;pointerEvents=0;fillColor=none;top=0;left=0;bottom=0;right=0;points=[[0,0.5],[1,0.5]];portConstraint=eastwest;fontSize=14;fontColor=#000000;strokeColor=#009E3F;strokeWidth=2;" parent="292" vertex="1">
                    <mxGeometry y="360" width="181.5" height="40" as="geometry"/>
                </mxCell>
                <mxCell id="321" value="縣市" style="shape=partialRectangle;html=1;whiteSpace=wrap;connectable=0;overflow=hidden;fillColor=none;top=0;left=0;bottom=0;right=0;pointerEvents=1;fontSize=14;fontColor=#000000;strokeColor=#009E3F;strokeWidth=2;" parent="320" vertex="1">
                    <mxGeometry width="91" height="40" as="geometry">
                        <mxRectangle width="91" height="40" as="alternateBounds"/>
                    </mxGeometry>
                </mxCell>
                <mxCell id="322" value="&lt;span&gt;varchar&lt;/span&gt;" style="shape=partialRectangle;html=1;whiteSpace=wrap;connectable=0;overflow=hidden;fillColor=none;top=0;left=0;bottom=0;right=0;pointerEvents=1;fontSize=14;fontColor=#000000;strokeColor=#009E3F;strokeWidth=2;" parent="320" vertex="1">
                    <mxGeometry x="91" width="91" height="40" as="geometry">
                        <mxRectangle width="91" height="40" as="alternateBounds"/>
                    </mxGeometry>
                </mxCell>
                <mxCell id="192" value="" style="shape=table;startSize=0;container=1;collapsible=0;childLayout=tableLayout;fontSize=14;strokeColor=#10739e;strokeWidth=2;fillColor=#b1ddf0;" parent="1" vertex="1">
                    <mxGeometry x="-640" width="240" height="440" as="geometry"/>
                </mxCell>
                <mxCell id="193" value="" style="shape=partialRectangle;collapsible=0;dropTarget=0;pointerEvents=0;fillColor=none;top=0;left=0;bottom=0;right=0;points=[[0,0.5],[1,0.5]];portConstraint=eastwest;fontSize=14;fontColor=#000000;strokeColor=#009E3F;strokeWidth=2;" parent="192" vertex="1">
                    <mxGeometry width="240" height="40" as="geometry"/>
                </mxCell>
                <mxCell id="194" value="商品" style="shape=partialRectangle;html=1;whiteSpace=wrap;connectable=0;overflow=hidden;fillColor=none;top=0;left=0;bottom=0;right=0;pointerEvents=1;fontSize=14;fontColor=#000000;strokeColor=#009E3F;strokeWidth=2;" parent="193" vertex="1">
                    <mxGeometry width="120" height="40" as="geometry">
                        <mxRectangle width="120" height="40" as="alternateBounds"/>
                    </mxGeometry>
                </mxCell>
                <mxCell id="195" value="" style="shape=partialRectangle;html=1;whiteSpace=wrap;connectable=0;overflow=hidden;fillColor=none;top=0;left=0;bottom=0;right=0;pointerEvents=1;fontSize=14;fontColor=#000000;strokeColor=#009E3F;strokeWidth=2;" parent="193" vertex="1">
                    <mxGeometry x="120" width="120" height="40" as="geometry">
                        <mxRectangle width="120" height="40" as="alternateBounds"/>
                    </mxGeometry>
                </mxCell>
                <mxCell id="196" value="" style="shape=partialRectangle;collapsible=0;dropTarget=0;pointerEvents=0;fillColor=none;top=0;left=0;bottom=0;right=0;points=[[0,0.5],[1,0.5]];portConstraint=eastwest;fontSize=14;fontColor=#000000;strokeColor=#009E3F;strokeWidth=2;" parent="192" vertex="1">
                    <mxGeometry y="40" width="240" height="40" as="geometry"/>
                </mxCell>
                <mxCell id="197" value="商品編號PK" style="shape=partialRectangle;html=1;whiteSpace=wrap;connectable=0;overflow=hidden;fillColor=#e3c800;top=0;left=0;bottom=0;right=0;pointerEvents=1;fontSize=14;fontColor=#000000;strokeColor=#B09500;strokeWidth=2;" parent="196" vertex="1">
                    <mxGeometry width="120" height="40" as="geometry">
                        <mxRectangle width="120" height="40" as="alternateBounds"/>
                    </mxGeometry>
                </mxCell>
                <mxCell id="198" value="INT" style="shape=partialRectangle;html=1;whiteSpace=wrap;connectable=0;overflow=hidden;fillColor=none;top=0;left=0;bottom=0;right=0;pointerEvents=1;fontSize=14;fontColor=#000000;strokeColor=#009E3F;strokeWidth=2;" parent="196" vertex="1">
                    <mxGeometry x="120" width="120" height="40" as="geometry">
                        <mxRectangle width="120" height="40" as="alternateBounds"/>
                    </mxGeometry>
                </mxCell>
                <mxCell id="199" value="" style="shape=partialRectangle;collapsible=0;dropTarget=0;pointerEvents=0;fillColor=none;top=0;left=0;bottom=0;right=0;points=[[0,0.5],[1,0.5]];portConstraint=eastwest;fontSize=14;fontColor=#000000;strokeColor=#009E3F;strokeWidth=2;" parent="192" vertex="1">
                    <mxGeometry y="80" width="240" height="40" as="geometry"/>
                </mxCell>
                <mxCell id="200" value="名稱" style="shape=partialRectangle;html=1;whiteSpace=wrap;connectable=0;overflow=hidden;fillColor=none;top=0;left=0;bottom=0;right=0;pointerEvents=1;fontSize=14;fontColor=#000000;strokeColor=#009E3F;strokeWidth=2;" parent="199" vertex="1">
                    <mxGeometry width="120" height="40" as="geometry">
                        <mxRectangle width="120" height="40" as="alternateBounds"/>
                    </mxGeometry>
                </mxCell>
                <mxCell id="201" value="VARCHAR" style="shape=partialRectangle;html=1;whiteSpace=wrap;connectable=0;overflow=hidden;fillColor=none;top=0;left=0;bottom=0;right=0;pointerEvents=1;fontSize=14;fontColor=#000000;strokeColor=#009E3F;strokeWidth=2;" parent="199" vertex="1">
                    <mxGeometry x="120" width="120" height="40" as="geometry">
                        <mxRectangle width="120" height="40" as="alternateBounds"/>
                    </mxGeometry>
                </mxCell>
                <mxCell id="202" value="" style="shape=partialRectangle;collapsible=0;dropTarget=0;pointerEvents=0;fillColor=none;top=0;left=0;bottom=0;right=0;points=[[0,0.5],[1,0.5]];portConstraint=eastwest;fontSize=14;fontColor=#000000;strokeColor=#009E3F;strokeWidth=2;" parent="192" vertex="1">
                    <mxGeometry y="120" width="240" height="40" as="geometry"/>
                </mxCell>
                <mxCell id="203" value="供應商流水號FK" style="shape=partialRectangle;html=1;whiteSpace=wrap;connectable=0;overflow=hidden;fillColor=none;top=0;left=0;bottom=0;right=0;pointerEvents=1;fontSize=14;fontColor=#000000;strokeColor=#009E3F;strokeWidth=2;" parent="202" vertex="1">
                    <mxGeometry width="120" height="40" as="geometry">
                        <mxRectangle width="120" height="40" as="alternateBounds"/>
                    </mxGeometry>
                </mxCell>
                <mxCell id="204" value="&lt;span&gt;VARCHAR&lt;/span&gt;" style="shape=partialRectangle;html=1;whiteSpace=wrap;connectable=0;overflow=hidden;fillColor=none;top=0;left=0;bottom=0;right=0;pointerEvents=1;fontSize=14;fontColor=#000000;strokeColor=#009E3F;strokeWidth=2;" parent="202" vertex="1">
                    <mxGeometry x="120" width="120" height="40" as="geometry">
                        <mxRectangle width="120" height="40" as="alternateBounds"/>
                    </mxGeometry>
                </mxCell>
                <mxCell id="205" value="" style="shape=partialRectangle;collapsible=0;dropTarget=0;pointerEvents=0;fillColor=none;top=0;left=0;bottom=0;right=0;points=[[0,0.5],[1,0.5]];portConstraint=eastwest;fontSize=14;fontColor=#000000;strokeColor=#009E3F;strokeWidth=2;" parent="192" vertex="1">
                    <mxGeometry y="160" width="240" height="40" as="geometry"/>
                </mxCell>
                <mxCell id="206" value="圖片" style="shape=partialRectangle;html=1;whiteSpace=wrap;connectable=0;overflow=hidden;fillColor=none;top=0;left=0;bottom=0;right=0;pointerEvents=1;fontSize=14;fontColor=#000000;strokeColor=#009E3F;strokeWidth=2;" parent="205" vertex="1">
                    <mxGeometry width="120" height="40" as="geometry">
                        <mxRectangle width="120" height="40" as="alternateBounds"/>
                    </mxGeometry>
                </mxCell>
                <mxCell id="207" value="mBLOB" style="shape=partialRectangle;html=1;whiteSpace=wrap;connectable=0;overflow=hidden;fillColor=none;top=0;left=0;bottom=0;right=0;pointerEvents=1;fontSize=14;fontColor=#000000;strokeColor=#009E3F;strokeWidth=2;" parent="205" vertex="1">
                    <mxGeometry x="120" width="120" height="40" as="geometry">
                        <mxRectangle width="120" height="40" as="alternateBounds"/>
                    </mxGeometry>
                </mxCell>
                <mxCell id="208" value="" style="shape=partialRectangle;collapsible=0;dropTarget=0;pointerEvents=0;fillColor=none;top=0;left=0;bottom=0;right=0;points=[[0,0.5],[1,0.5]];portConstraint=eastwest;fontSize=14;fontColor=#000000;strokeColor=#009E3F;strokeWidth=2;" parent="192" vertex="1">
                    <mxGeometry y="200" width="240" height="40" as="geometry"/>
                </mxCell>
                <mxCell id="209" value="價格" style="shape=partialRectangle;html=1;whiteSpace=wrap;connectable=0;overflow=hidden;fillColor=none;top=0;left=0;bottom=0;right=0;pointerEvents=1;fontSize=14;fontColor=#000000;strokeColor=#009E3F;strokeWidth=2;" parent="208" vertex="1">
                    <mxGeometry width="120" height="40" as="geometry">
                        <mxRectangle width="120" height="40" as="alternateBounds"/>
                    </mxGeometry>
                </mxCell>
                <mxCell id="210" value="int" style="shape=partialRectangle;html=1;whiteSpace=wrap;connectable=0;overflow=hidden;fillColor=none;top=0;left=0;bottom=0;right=0;pointerEvents=1;fontSize=14;fontColor=#000000;strokeColor=#009E3F;strokeWidth=2;" parent="208" vertex="1">
                    <mxGeometry x="120" width="120" height="40" as="geometry">
                        <mxRectangle width="120" height="40" as="alternateBounds"/>
                    </mxGeometry>
                </mxCell>
                <mxCell id="211" value="" style="shape=partialRectangle;collapsible=0;dropTarget=0;pointerEvents=0;fillColor=none;top=0;left=0;bottom=0;right=0;points=[[0,0.5],[1,0.5]];portConstraint=eastwest;fontSize=14;fontColor=#000000;strokeColor=#009E3F;strokeWidth=2;" parent="192" vertex="1">
                    <mxGeometry y="240" width="240" height="40" as="geometry"/>
                </mxCell>
                <mxCell id="212" value="庫存" style="shape=partialRectangle;html=1;whiteSpace=wrap;connectable=0;overflow=hidden;fillColor=none;top=0;left=0;bottom=0;right=0;pointerEvents=1;fontSize=14;fontColor=#000000;strokeColor=#009E3F;strokeWidth=2;" parent="211" vertex="1">
                    <mxGeometry width="120" height="40" as="geometry">
                        <mxRectangle width="120" height="40" as="alternateBounds"/>
                    </mxGeometry>
                </mxCell>
                <mxCell id="213" value="int" style="shape=partialRectangle;html=1;whiteSpace=wrap;connectable=0;overflow=hidden;fillColor=none;top=0;left=0;bottom=0;right=0;pointerEvents=1;fontSize=14;fontColor=#000000;strokeColor=#009E3F;strokeWidth=2;" parent="211" vertex="1">
                    <mxGeometry x="120" width="120" height="40" as="geometry">
                        <mxRectangle width="120" height="40" as="alternateBounds"/>
                    </mxGeometry>
                </mxCell>
                <mxCell id="214" value="" style="shape=partialRectangle;collapsible=0;dropTarget=0;pointerEvents=0;fillColor=none;top=0;left=0;bottom=0;right=0;points=[[0,0.5],[1,0.5]];portConstraint=eastwest;fontSize=14;fontColor=#000000;strokeColor=#009E3F;strokeWidth=2;" parent="192" vertex="1">
                    <mxGeometry y="280" width="240" height="40" as="geometry"/>
                </mxCell>
                <mxCell id="215" value="商品內容" style="shape=partialRectangle;html=1;whiteSpace=wrap;connectable=0;overflow=hidden;fillColor=none;top=0;left=0;bottom=0;right=0;pointerEvents=1;fontSize=14;fontColor=#000000;strokeColor=#009E3F;strokeWidth=2;" parent="214" vertex="1">
                    <mxGeometry width="120" height="40" as="geometry">
                        <mxRectangle width="120" height="40" as="alternateBounds"/>
                    </mxGeometry>
                </mxCell>
                <mxCell id="216" value="&lt;span&gt;VARCHAR&lt;/span&gt;" style="shape=partialRectangle;html=1;whiteSpace=wrap;connectable=0;overflow=hidden;fillColor=none;top=0;left=0;bottom=0;right=0;pointerEvents=1;fontSize=14;fontColor=#000000;strokeColor=#009E3F;strokeWidth=2;" parent="214" vertex="1">
                    <mxGeometry x="120" width="120" height="40" as="geometry">
                        <mxRectangle width="120" height="40" as="alternateBounds"/>
                    </mxGeometry>
                </mxCell>
                <mxCell id="217" value="" style="shape=partialRectangle;collapsible=0;dropTarget=0;pointerEvents=0;fillColor=none;top=0;left=0;bottom=0;right=0;points=[[0,0.5],[1,0.5]];portConstraint=eastwest;fontSize=14;fontColor=#000000;strokeColor=#009E3F;strokeWidth=2;" parent="192" vertex="1">
                    <mxGeometry y="320" width="240" height="40" as="geometry"/>
                </mxCell>
                <mxCell id="218" value="狀態" style="shape=partialRectangle;html=1;whiteSpace=wrap;connectable=0;overflow=hidden;fillColor=none;top=0;left=0;bottom=0;right=0;pointerEvents=1;fontSize=14;fontColor=#000000;strokeColor=#009E3F;strokeWidth=2;" parent="217" vertex="1">
                    <mxGeometry width="120" height="40" as="geometry">
                        <mxRectangle width="120" height="40" as="alternateBounds"/>
                    </mxGeometry>
                </mxCell>
                <mxCell id="219" value="enum" style="shape=partialRectangle;html=1;whiteSpace=wrap;connectable=0;overflow=hidden;fillColor=none;top=0;left=0;bottom=0;right=0;pointerEvents=1;fontSize=14;fontColor=#000000;strokeColor=#009E3F;strokeWidth=2;" parent="217" vertex="1">
                    <mxGeometry x="120" width="120" height="40" as="geometry">
                        <mxRectangle width="120" height="40" as="alternateBounds"/>
                    </mxGeometry>
                </mxCell>
                <mxCell id="220" value="" style="shape=partialRectangle;collapsible=0;dropTarget=0;pointerEvents=0;fillColor=none;top=0;left=0;bottom=0;right=0;points=[[0,0.5],[1,0.5]];portConstraint=eastwest;fontSize=14;fontColor=#000000;strokeColor=#009E3F;strokeWidth=2;" parent="192" vertex="1">
                    <mxGeometry y="360" width="240" height="40" as="geometry"/>
                </mxCell>
                <mxCell id="221" value="分類FK" style="shape=partialRectangle;html=1;whiteSpace=wrap;connectable=0;overflow=hidden;fillColor=none;top=0;left=0;bottom=0;right=0;pointerEvents=1;fontSize=14;fontColor=#000000;strokeColor=#009E3F;strokeWidth=2;" parent="220" vertex="1">
                    <mxGeometry width="120" height="40" as="geometry">
                        <mxRectangle width="120" height="40" as="alternateBounds"/>
                    </mxGeometry>
                </mxCell>
                <mxCell id="222" value="VARCHAR" style="shape=partialRectangle;html=1;whiteSpace=wrap;connectable=0;overflow=hidden;fillColor=none;top=0;left=0;bottom=0;right=0;pointerEvents=1;fontSize=14;fontColor=#000000;strokeColor=#009E3F;strokeWidth=2;" parent="220" vertex="1">
                    <mxGeometry x="120" width="120" height="40" as="geometry">
                        <mxRectangle width="120" height="40" as="alternateBounds"/>
                    </mxGeometry>
                </mxCell>
                <mxCell id="351" value="" style="shape=partialRectangle;collapsible=0;dropTarget=0;pointerEvents=0;fillColor=none;top=0;left=0;bottom=0;right=0;points=[[0,0.5],[1,0.5]];portConstraint=eastwest;fontSize=14;fontColor=#000000;strokeColor=#009E3F;strokeWidth=2;" parent="192" vertex="1">
                    <mxGeometry y="400" width="240" height="40" as="geometry"/>
                </mxCell>
                <mxCell id="352" value="折扣" style="shape=partialRectangle;html=1;whiteSpace=wrap;connectable=0;overflow=hidden;fillColor=none;top=0;left=0;bottom=0;right=0;pointerEvents=1;fontSize=14;fontColor=#000000;strokeColor=#009E3F;strokeWidth=2;" parent="351" vertex="1">
                    <mxGeometry width="120" height="40" as="geometry">
                        <mxRectangle width="120" height="40" as="alternateBounds"/>
                    </mxGeometry>
                </mxCell>
                <mxCell id="353" value="Float" style="shape=partialRectangle;html=1;whiteSpace=wrap;connectable=0;overflow=hidden;fillColor=none;top=0;left=0;bottom=0;right=0;pointerEvents=1;fontSize=14;fontColor=#000000;strokeColor=#009E3F;strokeWidth=2;" parent="351" vertex="1">
                    <mxGeometry x="120" width="120" height="40" as="geometry">
                        <mxRectangle width="120" height="40" as="alternateBounds"/>
                    </mxGeometry>
                </mxCell>
                <mxCell id="328" style="edgeStyle=none;html=1;exitX=1;exitY=0.5;exitDx=0;exitDy=0;entryX=0;entryY=0.5;entryDx=0;entryDy=0;jumpSize=6;strokeWidth=5;" parent="1" source="36" target="165" edge="1">
                    <mxGeometry relative="1" as="geometry">
                        <Array as="points">
                            <mxPoint x="-1320" y="-1020"/>
                            <mxPoint x="-1320" y="-980"/>
                        </Array>
                    </mxGeometry>
                </mxCell>
                <mxCell id="330" style="edgeStyle=none;jumpSize=6;html=1;exitX=1;exitY=0.5;exitDx=0;exitDy=0;entryX=0;entryY=0.5;entryDx=0;entryDy=0;strokeWidth=5;" parent="1" source="36" target="126" edge="1">
                    <mxGeometry relative="1" as="geometry">
                        <Array as="points">
                            <mxPoint x="-1320" y="-1020"/>
                            <mxPoint x="-1320" y="-620"/>
                        </Array>
                    </mxGeometry>
                </mxCell>
                <mxCell id="334" style="edgeStyle=none;jumpSize=6;html=1;exitX=1;exitY=0.5;exitDx=0;exitDy=0;entryX=0;entryY=0.5;entryDx=0;entryDy=0;strokeWidth=5;" parent="1" source="36" target="110" edge="1">
                    <mxGeometry relative="1" as="geometry">
                        <Array as="points">
                            <mxPoint x="-1320" y="-1020"/>
                            <mxPoint x="-1320" y="-260"/>
                        </Array>
                    </mxGeometry>
                </mxCell>
                <mxCell id="336" value="" style="endArrow=classic;html=1;strokeWidth=5;jumpSize=6;entryX=0;entryY=0.5;entryDx=0;entryDy=0;exitX=1;exitY=0.5;exitDx=0;exitDy=0;" parent="1" source="162" target="182" edge="1">
                    <mxGeometry width="50" height="50" relative="1" as="geometry">
                        <mxPoint x="-1050" y="-990" as="sourcePoint"/>
                        <mxPoint x="-1000" y="-1040" as="targetPoint"/>
                    </mxGeometry>
                </mxCell>
                <mxCell id="337" value="" style="endArrow=classic;html=1;strokeWidth=5;jumpSize=6;entryX=1;entryY=0.5;entryDx=0;entryDy=0;exitX=-0.016;exitY=0.303;exitDx=0;exitDy=0;exitPerimeter=0;" parent="1" source="145" target="132" edge="1">
                    <mxGeometry width="50" height="50" relative="1" as="geometry">
                        <mxPoint x="-870" y="-590" as="sourcePoint"/>
                        <mxPoint x="-920" y="-690" as="targetPoint"/>
                        <Array as="points">
                            <mxPoint x="-960" y="-600"/>
                            <mxPoint x="-960" y="-540"/>
                        </Array>
                    </mxGeometry>
                </mxCell>
                <mxCell id="339" style="edgeStyle=none;jumpSize=6;html=1;exitX=1;exitY=0.5;exitDx=0;exitDy=0;entryX=0;entryY=0.5;entryDx=0;entryDy=0;strokeWidth=5;" parent="1" source="36" target="246" edge="1">
                    <mxGeometry relative="1" as="geometry">
                        <Array as="points">
                            <mxPoint x="-1320" y="-1020"/>
                            <mxPoint x="-1320" y="100"/>
                        </Array>
                    </mxGeometry>
                </mxCell>
                <mxCell id="340" value="" style="endArrow=classic;html=1;strokeWidth=5;jumpSize=6;exitX=1;exitY=0.5;exitDx=0;exitDy=0;entryX=0;entryY=0.5;entryDx=0;entryDy=0;" parent="1" source="243" target="271" edge="1">
                    <mxGeometry width="50" height="50" relative="1" as="geometry">
                        <mxPoint x="-830" y="250" as="sourcePoint"/>
                        <mxPoint x="-930" y="100" as="targetPoint"/>
                    </mxGeometry>
                </mxCell>
                <mxCell id="342" value="" style="endArrow=classic;html=1;strokeWidth=5;jumpSize=6;exitX=0;exitY=0.5;exitDx=0;exitDy=0;entryX=1;entryY=0.5;entryDx=0;entryDy=0;" parent="1" source="196" target="274" edge="1">
                    <mxGeometry width="50" height="50" relative="1" as="geometry">
                        <mxPoint x="-830" y="250" as="sourcePoint"/>
                        <mxPoint x="-780" y="200" as="targetPoint"/>
                        <Array as="points">
                            <mxPoint x="-680" y="60"/>
                            <mxPoint x="-680" y="100"/>
                        </Array>
                    </mxGeometry>
                </mxCell>
                <mxCell id="343" value="" style="endArrow=classic;html=1;strokeWidth=5;jumpSize=6;entryX=1;entryY=0.5;entryDx=0;entryDy=0;exitX=1;exitY=0.5;exitDx=0;exitDy=0;" parent="1" source="231" target="220" edge="1">
                    <mxGeometry width="50" height="50" relative="1" as="geometry">
                        <mxPoint x="-280" y="530" as="sourcePoint"/>
                        <mxPoint x="-360" y="380" as="targetPoint"/>
                        <Array as="points">
                            <mxPoint x="-360" y="580"/>
                            <mxPoint x="-360" y="380"/>
                        </Array>
                    </mxGeometry>
                </mxCell>
                <mxCell id="344" value="" style="endArrow=classic;html=1;strokeWidth=5;jumpSize=6;exitX=1;exitY=0.5;exitDx=0;exitDy=0;entryX=0;entryY=0.5;entryDx=0;entryDy=0;" parent="1" source="296" target="202" edge="1">
                    <mxGeometry width="50" height="50" relative="1" as="geometry">
                        <mxPoint x="-830" y="370" as="sourcePoint"/>
                        <mxPoint x="-780" y="320" as="targetPoint"/>
                        <Array as="points">
                            <mxPoint x="-680" y="330"/>
                            <mxPoint x="-680" y="140"/>
                        </Array>
                    </mxGeometry>
                </mxCell>
                <mxCell id="355" value="" style="shape=table;startSize=0;container=1;collapsible=0;childLayout=tableLayout;fontSize=14;strokeColor=#d79b00;strokeWidth=2;fillColor=#ffe6cc;" parent="1" vertex="1">
                    <mxGeometry x="-914.25" y="-370" width="170" height="160" as="geometry"/>
                </mxCell>
                <mxCell id="356" value="" style="shape=partialRectangle;collapsible=0;dropTarget=0;pointerEvents=0;fillColor=none;top=0;left=0;bottom=0;right=0;points=[[0,0.5],[1,0.5]];portConstraint=eastwest;fontSize=14;fontColor=#000000;strokeColor=#009E3F;strokeWidth=2;" parent="355" vertex="1">
                    <mxGeometry width="170" height="40" as="geometry"/>
                </mxCell>
                <mxCell id="357" value="睡眠時數種類" style="shape=partialRectangle;html=1;whiteSpace=wrap;connectable=0;overflow=hidden;fillColor=none;top=0;left=0;bottom=0;right=0;pointerEvents=1;fontSize=14;fontColor=#000000;strokeColor=#009E3F;strokeWidth=2;" parent="356" vertex="1">
                    <mxGeometry width="80" height="40" as="geometry">
                        <mxRectangle width="80" height="40" as="alternateBounds"/>
                    </mxGeometry>
                </mxCell>
                <mxCell id="358" value="" style="shape=partialRectangle;html=1;whiteSpace=wrap;connectable=0;overflow=hidden;fillColor=none;top=0;left=0;bottom=0;right=0;pointerEvents=1;fontSize=14;fontColor=#000000;strokeColor=#009E3F;strokeWidth=2;" parent="356" vertex="1">
                    <mxGeometry x="80" width="90" height="40" as="geometry">
                        <mxRectangle width="90" height="40" as="alternateBounds"/>
                    </mxGeometry>
                </mxCell>
                <mxCell id="359" value="" style="shape=partialRectangle;collapsible=0;dropTarget=0;pointerEvents=0;fillColor=none;top=0;left=0;bottom=0;right=0;points=[[0,0.5],[1,0.5]];portConstraint=eastwest;fontSize=14;fontColor=#000000;strokeColor=#009E3F;strokeWidth=2;" parent="355" vertex="1">
                    <mxGeometry y="40" width="170" height="40" as="geometry"/>
                </mxCell>
                <mxCell id="360" value="流水號PK" style="shape=partialRectangle;html=1;whiteSpace=wrap;connectable=0;overflow=hidden;fillColor=#e3c800;top=0;left=0;bottom=0;right=0;pointerEvents=1;fontSize=14;fontColor=#000000;strokeColor=#B09500;strokeWidth=2;" parent="359" vertex="1">
                    <mxGeometry width="80" height="40" as="geometry">
                        <mxRectangle width="80" height="40" as="alternateBounds"/>
                    </mxGeometry>
                </mxCell>
                <mxCell id="361" value="int" style="shape=partialRectangle;html=1;whiteSpace=wrap;connectable=0;overflow=hidden;fillColor=none;top=0;left=0;bottom=0;right=0;pointerEvents=1;fontSize=14;fontColor=#000000;strokeColor=#009E3F;strokeWidth=2;" parent="359" vertex="1">
                    <mxGeometry x="80" width="90" height="40" as="geometry">
                        <mxRectangle width="90" height="40" as="alternateBounds"/>
                    </mxGeometry>
                </mxCell>
                <mxCell id="362" value="" style="shape=partialRectangle;collapsible=0;dropTarget=0;pointerEvents=0;fillColor=none;top=0;left=0;bottom=0;right=0;points=[[0,0.5],[1,0.5]];portConstraint=eastwest;fontSize=14;fontColor=#000000;strokeColor=#009E3F;strokeWidth=2;" parent="355" vertex="1">
                    <mxGeometry y="80" width="170" height="40" as="geometry"/>
                </mxCell>
                <mxCell id="363" value="年齡範圍代碼" style="shape=partialRectangle;html=1;whiteSpace=wrap;connectable=0;overflow=hidden;fillColor=none;top=0;left=0;bottom=0;right=0;pointerEvents=1;fontSize=14;fontColor=#000000;strokeColor=#009E3F;strokeWidth=2;" parent="362" vertex="1">
                    <mxGeometry width="80" height="40" as="geometry">
                        <mxRectangle width="80" height="40" as="alternateBounds"/>
                    </mxGeometry>
                </mxCell>
                <mxCell id="364" value="enum" style="shape=partialRectangle;html=1;whiteSpace=wrap;connectable=0;overflow=hidden;fillColor=none;top=0;left=0;bottom=0;right=0;pointerEvents=1;fontSize=14;fontColor=#000000;strokeColor=#009E3F;strokeWidth=2;" parent="362" vertex="1">
                    <mxGeometry x="80" width="90" height="40" as="geometry">
                        <mxRectangle width="90" height="40" as="alternateBounds"/>
                    </mxGeometry>
                </mxCell>
                <mxCell id="365" value="" style="shape=partialRectangle;collapsible=0;dropTarget=0;pointerEvents=0;fillColor=none;top=0;left=0;bottom=0;right=0;points=[[0,0.5],[1,0.5]];portConstraint=eastwest;fontSize=14;fontColor=#000000;strokeColor=#009E3F;strokeWidth=2;" parent="355" vertex="1">
                    <mxGeometry y="120" width="170" height="40" as="geometry"/>
                </mxCell>
                <mxCell id="366" value="建議睡眠時長" style="shape=partialRectangle;html=1;whiteSpace=wrap;connectable=0;overflow=hidden;fillColor=none;top=0;left=0;bottom=0;right=0;pointerEvents=1;fontSize=14;fontColor=#000000;strokeColor=#009E3F;strokeWidth=2;" parent="365" vertex="1">
                    <mxGeometry width="80" height="40" as="geometry">
                        <mxRectangle width="80" height="40" as="alternateBounds"/>
                    </mxGeometry>
                </mxCell>
                <mxCell id="367" value="float" style="shape=partialRectangle;html=1;whiteSpace=wrap;connectable=0;overflow=hidden;fillColor=none;top=0;left=0;bottom=0;right=0;pointerEvents=1;fontSize=14;fontColor=#000000;strokeColor=#009E3F;strokeWidth=2;" parent="365" vertex="1">
                    <mxGeometry x="80" width="90" height="40" as="geometry">
                        <mxRectangle width="90" height="40" as="alternateBounds"/>
                    </mxGeometry>
                </mxCell>
                <mxCell id="371" value="&lt;font color=&quot;#000000&quot;&gt;睡眠時間&lt;/font&gt;" style="whiteSpace=wrap;html=1;fontSize=14;fillColor=#b1ddf0;strokeColor=#0066CC;startSize=0;strokeWidth=2;" parent="1" vertex="1">
                    <mxGeometry x="-1200" y="-160" width="90" height="40" as="geometry"/>
                </mxCell>
                <mxCell id="373" value="&lt;font color=&quot;#000000&quot;&gt;float&lt;/font&gt;" style="whiteSpace=wrap;html=1;fontSize=14;fillColor=#b1ddf0;strokeColor=#0066CC;startSize=0;strokeWidth=2;" parent="1" vertex="1">
                    <mxGeometry x="-1110" y="-160" width="90" height="40" as="geometry"/>
                </mxCell>
                <mxCell id="375" value="" style="endArrow=classic;html=1;strokeWidth=5;jumpSize=6;entryX=1.022;entryY=0.224;entryDx=0;entryDy=0;entryPerimeter=0;" parent="1" target="116" edge="1">
                    <mxGeometry width="50" height="50" relative="1" as="geometry">
                        <mxPoint x="-914.25" y="-310" as="sourcePoint"/>
                        <mxPoint x="-1054.2500000000002" y="-190" as="targetPoint"/>
                        <Array as="points">
                            <mxPoint x="-970" y="-310"/>
                            <mxPoint x="-970" y="-190"/>
                        </Array>
                    </mxGeometry>
                </mxCell>
                <mxCell id="436" value="" style="shape=table;startSize=0;container=1;collapsible=0;childLayout=tableLayout;labelBackgroundColor=none;strokeColor=#d79b00;fillColor=#ffe6cc;strokeWidth=2;" parent="1" vertex="1">
                    <mxGeometry x="-1195" y="-1390" width="170" height="240.00000000000023" as="geometry"/>
                </mxCell>
                <mxCell id="437" value="" style="shape=partialRectangle;collapsible=0;dropTarget=0;pointerEvents=0;fillColor=none;top=0;left=0;bottom=0;right=0;points=[[0,0.5],[1,0.5]];portConstraint=eastwest;labelBackgroundColor=#2a2a2a;fontColor=#000000;strokeColor=#000000;" parent="436" vertex="1">
                    <mxGeometry width="170" height="40" as="geometry"/>
                </mxCell>
                <mxCell id="438" value="&lt;span style=&quot;&quot;&gt;健康資訊&lt;/span&gt;" style="shape=partialRectangle;html=1;whiteSpace=wrap;connectable=0;overflow=hidden;fillColor=none;top=0;left=0;bottom=0;right=0;pointerEvents=1;labelBackgroundColor=none;fontColor=#000000;strokeColor=#000000;" parent="437" vertex="1">
                    <mxGeometry width="85" height="40" as="geometry">
                        <mxRectangle width="85" height="40" as="alternateBounds"/>
                    </mxGeometry>
                </mxCell>
                <mxCell id="439" value="" style="shape=partialRectangle;html=1;whiteSpace=wrap;connectable=0;overflow=hidden;fillColor=none;top=0;left=0;bottom=0;right=0;pointerEvents=1;labelBackgroundColor=#2a2a2a;fontColor=#000000;strokeColor=#000000;" parent="437" vertex="1">
                    <mxGeometry x="85" width="85" height="40" as="geometry">
                        <mxRectangle width="85" height="40" as="alternateBounds"/>
                    </mxGeometry>
                </mxCell>
                <mxCell id="440" value="" style="shape=partialRectangle;collapsible=0;dropTarget=0;pointerEvents=0;fillColor=none;top=0;left=0;bottom=0;right=0;points=[[0,0.5],[1,0.5]];portConstraint=eastwest;labelBackgroundColor=#2a2a2a;fontColor=#000000;strokeColor=#000000;" parent="436" vertex="1">
                    <mxGeometry y="40" width="170" height="40" as="geometry"/>
                </mxCell>
                <mxCell id="441" value="&lt;span style=&quot;font-size: 14px&quot;&gt;流水號PK&lt;/span&gt;" style="shape=partialRectangle;html=1;whiteSpace=wrap;connectable=0;overflow=hidden;fillColor=none;top=0;left=0;bottom=0;right=0;pointerEvents=1;labelBackgroundColor=none;fontColor=#000000;strokeColor=#000000;" parent="440" vertex="1">
                    <mxGeometry width="85" height="40" as="geometry">
                        <mxRectangle width="85" height="40" as="alternateBounds"/>
                    </mxGeometry>
                </mxCell>
                <mxCell id="442" value="int" style="shape=partialRectangle;html=1;whiteSpace=wrap;connectable=0;overflow=hidden;fillColor=none;top=0;left=0;bottom=0;right=0;pointerEvents=1;labelBackgroundColor=none;fontColor=#000000;strokeColor=#000000;" parent="440" vertex="1">
                    <mxGeometry x="85" width="85" height="40" as="geometry">
                        <mxRectangle width="85" height="40" as="alternateBounds"/>
                    </mxGeometry>
                </mxCell>
                <mxCell id="443" value="" style="shape=partialRectangle;collapsible=0;dropTarget=0;pointerEvents=0;fillColor=none;top=0;left=0;bottom=0;right=0;points=[[0,0.5],[1,0.5]];portConstraint=eastwest;labelBackgroundColor=#2a2a2a;fontColor=#000000;strokeColor=#000000;" parent="436" vertex="1">
                    <mxGeometry y="80" width="170" height="40" as="geometry"/>
                </mxCell>
                <mxCell id="444" value="會員編號FK" style="shape=partialRectangle;html=1;whiteSpace=wrap;connectable=0;overflow=hidden;fillColor=none;top=0;left=0;bottom=0;right=0;pointerEvents=1;labelBackgroundColor=none;fontColor=#000000;strokeColor=#000000;" parent="443" vertex="1">
                    <mxGeometry width="85" height="40" as="geometry">
                        <mxRectangle width="85" height="40" as="alternateBounds"/>
                    </mxGeometry>
                </mxCell>
                <mxCell id="445" value="int" style="shape=partialRectangle;html=1;whiteSpace=wrap;connectable=0;overflow=hidden;fillColor=none;top=0;left=0;bottom=0;right=0;pointerEvents=1;labelBackgroundColor=none;fontColor=#000000;strokeColor=#000000;" parent="443" vertex="1">
                    <mxGeometry x="85" width="85" height="40" as="geometry">
                        <mxRectangle width="85" height="40" as="alternateBounds"/>
                    </mxGeometry>
                </mxCell>
                <mxCell id="446" value="" style="shape=partialRectangle;collapsible=0;dropTarget=0;pointerEvents=0;fillColor=none;top=0;left=0;bottom=0;right=0;points=[[0,0.5],[1,0.5]];portConstraint=eastwest;labelBackgroundColor=#2a2a2a;fontColor=#000000;strokeColor=#000000;" parent="436" vertex="1">
                    <mxGeometry y="120" width="170" height="40" as="geometry"/>
                </mxCell>
                <mxCell id="447" value="身高" style="shape=partialRectangle;html=1;whiteSpace=wrap;connectable=0;overflow=hidden;fillColor=none;top=0;left=0;bottom=0;right=0;pointerEvents=1;labelBackgroundColor=none;fontColor=#000000;strokeColor=#000000;" parent="446" vertex="1">
                    <mxGeometry width="85" height="40" as="geometry">
                        <mxRectangle width="85" height="40" as="alternateBounds"/>
                    </mxGeometry>
                </mxCell>
                <mxCell id="448" value="float" style="shape=partialRectangle;html=1;whiteSpace=wrap;connectable=0;overflow=hidden;fillColor=none;top=0;left=0;bottom=0;right=0;pointerEvents=1;labelBackgroundColor=none;fontColor=#000000;strokeColor=#000000;" parent="446" vertex="1">
                    <mxGeometry x="85" width="85" height="40" as="geometry">
                        <mxRectangle width="85" height="40" as="alternateBounds"/>
                    </mxGeometry>
                </mxCell>
                <mxCell id="449" value="" style="shape=partialRectangle;collapsible=0;dropTarget=0;pointerEvents=0;fillColor=none;top=0;left=0;bottom=0;right=0;points=[[0,0.5],[1,0.5]];portConstraint=eastwest;labelBackgroundColor=#2a2a2a;fontColor=#000000;strokeColor=#000000;" parent="436" vertex="1">
                    <mxGeometry y="160" width="170" height="40" as="geometry"/>
                </mxCell>
                <mxCell id="450" value="體重" style="shape=partialRectangle;html=1;whiteSpace=wrap;connectable=0;overflow=hidden;fillColor=none;top=0;left=0;bottom=0;right=0;pointerEvents=1;labelBackgroundColor=none;fontColor=#000000;strokeColor=#000000;" parent="449" vertex="1">
                    <mxGeometry width="85" height="40" as="geometry">
                        <mxRectangle width="85" height="40" as="alternateBounds"/>
                    </mxGeometry>
                </mxCell>
                <mxCell id="451" value="float" style="shape=partialRectangle;html=1;whiteSpace=wrap;connectable=0;overflow=hidden;fillColor=none;top=0;left=0;bottom=0;right=0;pointerEvents=1;labelBackgroundColor=none;fontColor=#000000;strokeColor=#000000;" parent="449" vertex="1">
                    <mxGeometry x="85" width="85" height="40" as="geometry">
                        <mxRectangle width="85" height="40" as="alternateBounds"/>
                    </mxGeometry>
                </mxCell>
                <mxCell id="452" value="" style="shape=partialRectangle;collapsible=0;dropTarget=0;pointerEvents=0;fillColor=none;top=0;left=0;bottom=0;right=0;points=[[0,0.5],[1,0.5]];portConstraint=eastwest;labelBackgroundColor=#2a2a2a;fontColor=#000000;strokeColor=#000000;" parent="436" vertex="1">
                    <mxGeometry y="200" width="170" height="40" as="geometry"/>
                </mxCell>
                <mxCell id="453" value="BMI" style="shape=partialRectangle;html=1;whiteSpace=wrap;connectable=0;overflow=hidden;fillColor=none;top=0;left=0;bottom=0;right=0;pointerEvents=1;labelBackgroundColor=none;fontColor=#000000;strokeColor=#000000;" parent="452" vertex="1">
                    <mxGeometry width="85" height="40" as="geometry">
                        <mxRectangle width="85" height="40" as="alternateBounds"/>
                    </mxGeometry>
                </mxCell>
                <mxCell id="454" value="float" style="shape=partialRectangle;html=1;whiteSpace=wrap;connectable=0;overflow=hidden;fillColor=none;top=0;left=0;bottom=0;right=0;pointerEvents=1;labelBackgroundColor=none;fontColor=#000000;strokeColor=#000000;" parent="452" vertex="1">
                    <mxGeometry x="85" width="85" height="40" as="geometry">
                        <mxRectangle width="85" height="40" as="alternateBounds"/>
                    </mxGeometry>
                </mxCell>
                <mxCell id="455" value="" style="endArrow=classic;html=1;strokeWidth=5;jumpSize=6;exitX=1;exitY=0.5;exitDx=0;exitDy=0;entryX=0;entryY=0.5;entryDx=0;entryDy=0;" parent="1" target="443" edge="1">
                    <mxGeometry width="50" height="50" relative="1" as="geometry">
                        <mxPoint x="-1366.5000000000002" y="-1020" as="sourcePoint"/>
                        <mxPoint x="-1240" y="-1270" as="targetPoint"/>
                        <Array as="points">
                            <mxPoint x="-1320" y="-1020"/>
                            <mxPoint x="-1320" y="-1290"/>
                        </Array>
                    </mxGeometry>
                </mxCell>
                <mxCell id="475" value="" style="endArrow=classic;html=1;strokeWidth=5;jumpSize=6;exitX=1;exitY=0.5;exitDx=0;exitDy=0;entryX=-0.036;entryY=0.179;entryDx=0;entryDy=0;entryPerimeter=0;" parent="1" edge="1">
                    <mxGeometry width="50" height="50" relative="1" as="geometry">
                        <mxPoint x="-1025.0000000000002" y="-1325" as="sourcePoint"/>
                        <mxPoint x="-924.3200000000002" y="-1327.8400000000001" as="targetPoint"/>
                        <Array as="points">
                            <mxPoint x="-950" y="-1325"/>
                        </Array>
                    </mxGeometry>
                </mxCell>
                <mxCell id="476" value="" style="shape=table;startSize=0;container=1;collapsible=0;childLayout=tableLayout;labelBackgroundColor=none;strokeColor=#d79b00;strokeWidth=2;fillColor=#ffe6cc;" parent="1" vertex="1">
                    <mxGeometry x="-500" y="-1470" width="140" height="160.00000000000045" as="geometry"/>
                </mxCell>
                <mxCell id="477" value="" style="shape=partialRectangle;collapsible=0;dropTarget=0;pointerEvents=0;fillColor=none;top=0;left=0;bottom=0;right=0;points=[[0,0.5],[1,0.5]];portConstraint=eastwest;labelBackgroundColor=none;fontColor=#000000;strokeColor=#36393D;strokeWidth=2;" parent="476" vertex="1">
                    <mxGeometry width="140" height="40" as="geometry"/>
                </mxCell>
                <mxCell id="478" value="六大類食物" style="shape=partialRectangle;html=1;whiteSpace=wrap;connectable=0;overflow=hidden;fillColor=none;top=0;left=0;bottom=0;right=0;pointerEvents=1;labelBackgroundColor=none;fontColor=#000000;strokeColor=#36393D;strokeWidth=2;" parent="477" vertex="1">
                    <mxGeometry width="70" height="40" as="geometry">
                        <mxRectangle width="70" height="40" as="alternateBounds"/>
                    </mxGeometry>
                </mxCell>
                <mxCell id="479" value="" style="shape=partialRectangle;html=1;whiteSpace=wrap;connectable=0;overflow=hidden;fillColor=none;top=0;left=0;bottom=0;right=0;pointerEvents=1;labelBackgroundColor=none;fontColor=#000000;strokeColor=#36393D;strokeWidth=2;" parent="477" vertex="1">
                    <mxGeometry x="70" width="70" height="40" as="geometry">
                        <mxRectangle width="70" height="40" as="alternateBounds"/>
                    </mxGeometry>
                </mxCell>
                <mxCell id="480" value="" style="shape=partialRectangle;collapsible=0;dropTarget=0;pointerEvents=0;fillColor=none;top=0;left=0;bottom=0;right=0;points=[[0,0.5],[1,0.5]];portConstraint=eastwest;labelBackgroundColor=none;fontColor=#000000;strokeColor=#36393D;strokeWidth=2;" parent="476" vertex="1">
                    <mxGeometry y="40" width="140" height="40" as="geometry"/>
                </mxCell>
                <mxCell id="481" value="分類代碼PK" style="shape=partialRectangle;html=1;whiteSpace=wrap;connectable=0;overflow=hidden;fillColor=none;top=0;left=0;bottom=0;right=0;pointerEvents=1;labelBackgroundColor=none;fontColor=#000000;strokeColor=#36393D;strokeWidth=2;" parent="480" vertex="1">
                    <mxGeometry width="70" height="40" as="geometry">
                        <mxRectangle width="70" height="40" as="alternateBounds"/>
                    </mxGeometry>
                </mxCell>
                <mxCell id="482" value="int" style="shape=partialRectangle;html=1;whiteSpace=wrap;connectable=0;overflow=hidden;fillColor=none;top=0;left=0;bottom=0;right=0;pointerEvents=1;labelBackgroundColor=none;fontColor=#000000;strokeColor=#36393D;strokeWidth=2;" parent="480" vertex="1">
                    <mxGeometry x="70" width="70" height="40" as="geometry">
                        <mxRectangle width="70" height="40" as="alternateBounds"/>
                    </mxGeometry>
                </mxCell>
                <mxCell id="483" value="" style="shape=partialRectangle;collapsible=0;dropTarget=0;pointerEvents=0;fillColor=none;top=0;left=0;bottom=0;right=0;points=[[0,0.5],[1,0.5]];portConstraint=eastwest;labelBackgroundColor=none;fontColor=#000000;strokeColor=#36393D;strokeWidth=2;" parent="476" vertex="1">
                    <mxGeometry y="80" width="140" height="40" as="geometry"/>
                </mxCell>
                <mxCell id="484" value="分類名稱" style="shape=partialRectangle;html=1;whiteSpace=wrap;connectable=0;overflow=hidden;fillColor=none;top=0;left=0;bottom=0;right=0;pointerEvents=1;labelBackgroundColor=none;fontColor=#000000;strokeColor=#36393D;strokeWidth=2;" parent="483" vertex="1">
                    <mxGeometry width="70" height="40" as="geometry">
                        <mxRectangle width="70" height="40" as="alternateBounds"/>
                    </mxGeometry>
                </mxCell>
                <mxCell id="485" value="varchar" style="shape=partialRectangle;html=1;whiteSpace=wrap;connectable=0;overflow=hidden;fillColor=none;top=0;left=0;bottom=0;right=0;pointerEvents=1;labelBackgroundColor=none;fontColor=#000000;strokeColor=#36393D;strokeWidth=2;" parent="483" vertex="1">
                    <mxGeometry x="70" width="70" height="40" as="geometry">
                        <mxRectangle width="70" height="40" as="alternateBounds"/>
                    </mxGeometry>
                </mxCell>
                <mxCell id="504" value="" style="shape=partialRectangle;collapsible=0;dropTarget=0;pointerEvents=0;fillColor=none;top=0;left=0;bottom=0;right=0;points=[[0,0.5],[1,0.5]];portConstraint=eastwest;labelBackgroundColor=none;fontColor=#000000;strokeColor=#36393D;strokeWidth=2;" parent="476" vertex="1">
                    <mxGeometry y="120" width="140" height="40" as="geometry"/>
                </mxCell>
                <mxCell id="505" value="" style="shape=partialRectangle;html=1;whiteSpace=wrap;connectable=0;overflow=hidden;fillColor=none;top=0;left=0;bottom=0;right=0;pointerEvents=1;labelBackgroundColor=none;fontColor=#000000;strokeColor=#36393D;strokeWidth=2;" parent="504" vertex="1">
                    <mxGeometry width="70" height="40" as="geometry">
                        <mxRectangle width="70" height="40" as="alternateBounds"/>
                    </mxGeometry>
                </mxCell>
                <mxCell id="506" value="" style="shape=partialRectangle;html=1;whiteSpace=wrap;connectable=0;overflow=hidden;fillColor=none;top=0;left=0;bottom=0;right=0;pointerEvents=1;labelBackgroundColor=none;fontColor=#000000;strokeColor=#36393D;strokeWidth=2;" parent="504" vertex="1">
                    <mxGeometry x="70" width="70" height="40" as="geometry">
                        <mxRectangle width="70" height="40" as="alternateBounds"/>
                    </mxGeometry>
                </mxCell>
                <mxCell id="507" value="" style="shape=table;startSize=0;container=1;collapsible=0;childLayout=tableLayout;labelBackgroundColor=none;strokeColor=#d79b00;strokeWidth=2;fillColor=#ffe6cc;" parent="1" vertex="1">
                    <mxGeometry x="-920" y="-1380" width="120" height="160" as="geometry"/>
                </mxCell>
                <mxCell id="508" value="" style="shape=partialRectangle;collapsible=0;dropTarget=0;pointerEvents=0;fillColor=none;top=0;left=0;bottom=0;right=0;points=[[0,0.5],[1,0.5]];portConstraint=eastwest;labelBackgroundColor=none;fontColor=#000000;strokeColor=#36393D;strokeWidth=2;" parent="507" vertex="1">
                    <mxGeometry width="120" height="40" as="geometry"/>
                </mxCell>
                <mxCell id="509" value="份數建議" style="shape=partialRectangle;html=1;whiteSpace=wrap;connectable=0;overflow=hidden;fillColor=none;top=0;left=0;bottom=0;right=0;pointerEvents=1;labelBackgroundColor=none;fontColor=#000000;strokeColor=#36393D;strokeWidth=2;" parent="508" vertex="1">
                    <mxGeometry width="60" height="40" as="geometry">
                        <mxRectangle width="60" height="40" as="alternateBounds"/>
                    </mxGeometry>
                </mxCell>
                <mxCell id="510" value="" style="shape=partialRectangle;html=1;whiteSpace=wrap;connectable=0;overflow=hidden;fillColor=none;top=0;left=0;bottom=0;right=0;pointerEvents=1;labelBackgroundColor=none;fontColor=#000000;strokeColor=#36393D;strokeWidth=2;" parent="508" vertex="1">
                    <mxGeometry x="60" width="60" height="40" as="geometry">
                        <mxRectangle width="60" height="40" as="alternateBounds"/>
                    </mxGeometry>
                </mxCell>
                <mxCell id="511" value="" style="shape=partialRectangle;collapsible=0;dropTarget=0;pointerEvents=0;fillColor=none;top=0;left=0;bottom=0;right=0;points=[[0,0.5],[1,0.5]];portConstraint=eastwest;labelBackgroundColor=none;fontColor=#000000;strokeColor=#36393D;strokeWidth=2;" parent="507" vertex="1">
                    <mxGeometry y="40" width="120" height="40" as="geometry"/>
                </mxCell>
                <mxCell id="512" value="份數建議&lt;br&gt;流水號FK" style="shape=partialRectangle;html=1;whiteSpace=wrap;connectable=0;overflow=hidden;fillColor=none;top=0;left=0;bottom=0;right=0;pointerEvents=1;labelBackgroundColor=none;fontColor=#000000;strokeColor=#36393D;strokeWidth=2;" parent="511" vertex="1">
                    <mxGeometry width="60" height="40" as="geometry">
                        <mxRectangle width="60" height="40" as="alternateBounds"/>
                    </mxGeometry>
                </mxCell>
                <mxCell id="513" value="int" style="shape=partialRectangle;html=1;whiteSpace=wrap;connectable=0;overflow=hidden;fillColor=none;top=0;left=0;bottom=0;right=0;pointerEvents=1;labelBackgroundColor=none;fontColor=#000000;strokeColor=#36393D;strokeWidth=2;" parent="511" vertex="1">
                    <mxGeometry x="60" width="60" height="40" as="geometry">
                        <mxRectangle width="60" height="40" as="alternateBounds"/>
                    </mxGeometry>
                </mxCell>
                <mxCell id="514" value="" style="shape=partialRectangle;collapsible=0;dropTarget=0;pointerEvents=0;fillColor=none;top=0;left=0;bottom=0;right=0;points=[[0,0.5],[1,0.5]];portConstraint=eastwest;labelBackgroundColor=none;fontColor=#000000;strokeColor=#36393D;strokeWidth=2;" parent="507" vertex="1">
                    <mxGeometry y="80" width="120" height="40" as="geometry"/>
                </mxCell>
                <mxCell id="515" value="TDEE" style="shape=partialRectangle;html=1;whiteSpace=wrap;connectable=0;overflow=hidden;fillColor=none;top=0;left=0;bottom=0;right=0;pointerEvents=1;labelBackgroundColor=none;fontColor=#000000;strokeColor=#36393D;strokeWidth=2;" parent="514" vertex="1">
                    <mxGeometry width="60" height="40" as="geometry">
                        <mxRectangle width="60" height="40" as="alternateBounds"/>
                    </mxGeometry>
                </mxCell>
                <mxCell id="516" value="float" style="shape=partialRectangle;html=1;whiteSpace=wrap;connectable=0;overflow=hidden;fillColor=none;top=0;left=0;bottom=0;right=0;pointerEvents=1;labelBackgroundColor=none;fontColor=#000000;strokeColor=#36393D;strokeWidth=2;" parent="514" vertex="1">
                    <mxGeometry x="60" width="60" height="40" as="geometry">
                        <mxRectangle width="60" height="40" as="alternateBounds"/>
                    </mxGeometry>
                </mxCell>
                <mxCell id="517" value="" style="shape=partialRectangle;collapsible=0;dropTarget=0;pointerEvents=0;fillColor=none;top=0;left=0;bottom=0;right=0;points=[[0,0.5],[1,0.5]];portConstraint=eastwest;labelBackgroundColor=none;fontColor=#000000;strokeColor=#36393D;strokeWidth=2;" parent="507" vertex="1">
                    <mxGeometry y="120" width="120" height="40" as="geometry"/>
                </mxCell>
                <mxCell id="518" value="份數FK" style="shape=partialRectangle;html=1;whiteSpace=wrap;connectable=0;overflow=hidden;fillColor=none;top=0;left=0;bottom=0;right=0;pointerEvents=1;labelBackgroundColor=none;fontColor=#000000;strokeColor=#36393D;strokeWidth=2;" parent="517" vertex="1">
                    <mxGeometry width="60" height="40" as="geometry">
                        <mxRectangle width="60" height="40" as="alternateBounds"/>
                    </mxGeometry>
                </mxCell>
                <mxCell id="519" value="int" style="shape=partialRectangle;html=1;whiteSpace=wrap;connectable=0;overflow=hidden;fillColor=none;top=0;left=0;bottom=0;right=0;pointerEvents=1;labelBackgroundColor=none;fontColor=#000000;strokeColor=#36393D;strokeWidth=2;" parent="517" vertex="1">
                    <mxGeometry x="60" width="60" height="40" as="geometry">
                        <mxRectangle width="60" height="40" as="alternateBounds"/>
                    </mxGeometry>
                </mxCell>
                <mxCell id="520" value="" style="shape=table;startSize=0;container=1;collapsible=0;childLayout=tableLayout;labelBackgroundColor=none;strokeColor=#d79b00;strokeWidth=2;fillColor=#ffe6cc;" parent="1" vertex="1">
                    <mxGeometry x="-720" y="-1510" width="120" height="400" as="geometry"/>
                </mxCell>
                <mxCell id="521" value="" style="shape=partialRectangle;collapsible=0;dropTarget=0;pointerEvents=0;fillColor=none;top=0;left=0;bottom=0;right=0;points=[[0,0.5],[1,0.5]];portConstraint=eastwest;labelBackgroundColor=none;fontColor=#000000;strokeColor=#36393D;strokeWidth=2;" parent="520" vertex="1">
                    <mxGeometry width="120" height="40" as="geometry"/>
                </mxCell>
                <mxCell id="522" value="熱量範圍&lt;br&gt;份數建議" style="shape=partialRectangle;html=1;whiteSpace=wrap;connectable=0;overflow=hidden;fillColor=none;top=0;left=0;bottom=0;right=0;pointerEvents=1;labelBackgroundColor=none;fontColor=#000000;strokeColor=#36393D;strokeWidth=2;" parent="521" vertex="1">
                    <mxGeometry width="60" height="40" as="geometry">
                        <mxRectangle width="60" height="40" as="alternateBounds"/>
                    </mxGeometry>
                </mxCell>
                <mxCell id="523" value="" style="shape=partialRectangle;html=1;whiteSpace=wrap;connectable=0;overflow=hidden;fillColor=none;top=0;left=0;bottom=0;right=0;pointerEvents=1;labelBackgroundColor=none;fontColor=#000000;strokeColor=#36393D;strokeWidth=2;" parent="521" vertex="1">
                    <mxGeometry x="60" width="60" height="40" as="geometry">
                        <mxRectangle width="60" height="40" as="alternateBounds"/>
                    </mxGeometry>
                </mxCell>
                <mxCell id="548" style="shape=partialRectangle;collapsible=0;dropTarget=0;pointerEvents=0;fillColor=none;top=0;left=0;bottom=0;right=0;points=[[0,0.5],[1,0.5]];portConstraint=eastwest;labelBackgroundColor=none;fontColor=#000000;strokeColor=#36393D;strokeWidth=2;" parent="520" vertex="1">
                    <mxGeometry y="40" width="120" height="40" as="geometry"/>
                </mxCell>
                <mxCell id="549" value="份數ID(PK)" style="shape=partialRectangle;html=1;whiteSpace=wrap;connectable=0;overflow=hidden;fillColor=none;top=0;left=0;bottom=0;right=0;pointerEvents=1;labelBackgroundColor=none;fontColor=#000000;strokeColor=#36393D;strokeWidth=2;" parent="548" vertex="1">
                    <mxGeometry width="60" height="40" as="geometry">
                        <mxRectangle width="60" height="40" as="alternateBounds"/>
                    </mxGeometry>
                </mxCell>
                <mxCell id="550" value="int" style="shape=partialRectangle;html=1;whiteSpace=wrap;connectable=0;overflow=hidden;fillColor=none;top=0;left=0;bottom=0;right=0;pointerEvents=1;labelBackgroundColor=none;fontColor=#000000;strokeColor=#36393D;strokeWidth=2;" parent="548" vertex="1">
                    <mxGeometry x="60" width="60" height="40" as="geometry">
                        <mxRectangle width="60" height="40" as="alternateBounds"/>
                    </mxGeometry>
                </mxCell>
                <mxCell id="545" style="shape=partialRectangle;collapsible=0;dropTarget=0;pointerEvents=0;fillColor=none;top=0;left=0;bottom=0;right=0;points=[[0,0.5],[1,0.5]];portConstraint=eastwest;labelBackgroundColor=none;fontColor=#000000;strokeColor=#36393D;strokeWidth=2;" parent="520" vertex="1">
                    <mxGeometry y="80" width="120" height="40" as="geometry"/>
                </mxCell>
                <mxCell id="546" value="食物分類FK" style="shape=partialRectangle;html=1;whiteSpace=wrap;connectable=0;overflow=hidden;fillColor=none;top=0;left=0;bottom=0;right=0;pointerEvents=1;labelBackgroundColor=none;fontColor=#000000;strokeColor=#36393D;strokeWidth=2;" parent="545" vertex="1">
                    <mxGeometry width="60" height="40" as="geometry">
                        <mxRectangle width="60" height="40" as="alternateBounds"/>
                    </mxGeometry>
                </mxCell>
                <mxCell id="547" value="int" style="shape=partialRectangle;html=1;whiteSpace=wrap;connectable=0;overflow=hidden;fillColor=none;top=0;left=0;bottom=0;right=0;pointerEvents=1;labelBackgroundColor=none;fontColor=#000000;strokeColor=#36393D;strokeWidth=2;" parent="545" vertex="1">
                    <mxGeometry x="60" width="60" height="40" as="geometry">
                        <mxRectangle width="60" height="40" as="alternateBounds"/>
                    </mxGeometry>
                </mxCell>
                <mxCell id="524" value="" style="shape=partialRectangle;collapsible=0;dropTarget=0;pointerEvents=0;fillColor=none;top=0;left=0;bottom=0;right=0;points=[[0,0.5],[1,0.5]];portConstraint=eastwest;labelBackgroundColor=none;fontColor=#000000;strokeColor=#36393D;strokeWidth=2;" parent="520" vertex="1">
                    <mxGeometry y="120" width="120" height="40" as="geometry"/>
                </mxCell>
                <mxCell id="525" value="1200" style="shape=partialRectangle;html=1;whiteSpace=wrap;connectable=0;overflow=hidden;fillColor=none;top=0;left=0;bottom=0;right=0;pointerEvents=1;labelBackgroundColor=none;fontColor=#000000;strokeColor=#36393D;strokeWidth=2;" parent="524" vertex="1">
                    <mxGeometry width="60" height="40" as="geometry">
                        <mxRectangle width="60" height="40" as="alternateBounds"/>
                    </mxGeometry>
                </mxCell>
                <mxCell id="526" value="float" style="shape=partialRectangle;html=1;whiteSpace=wrap;connectable=0;overflow=hidden;fillColor=none;top=0;left=0;bottom=0;right=0;pointerEvents=1;labelBackgroundColor=none;fontColor=#000000;strokeColor=#36393D;strokeWidth=2;" parent="524" vertex="1">
                    <mxGeometry x="60" width="60" height="40" as="geometry">
                        <mxRectangle width="60" height="40" as="alternateBounds"/>
                    </mxGeometry>
                </mxCell>
                <mxCell id="527" value="" style="shape=partialRectangle;collapsible=0;dropTarget=0;pointerEvents=0;fillColor=none;top=0;left=0;bottom=0;right=0;points=[[0,0.5],[1,0.5]];portConstraint=eastwest;labelBackgroundColor=none;fontColor=#000000;strokeColor=#36393D;strokeWidth=2;" parent="520" vertex="1">
                    <mxGeometry y="160" width="120" height="40" as="geometry"/>
                </mxCell>
                <mxCell id="528" value="1500" style="shape=partialRectangle;html=1;whiteSpace=wrap;connectable=0;overflow=hidden;fillColor=none;top=0;left=0;bottom=0;right=0;pointerEvents=1;labelBackgroundColor=none;fontColor=#000000;strokeColor=#36393D;strokeWidth=2;" parent="527" vertex="1">
                    <mxGeometry width="60" height="40" as="geometry">
                        <mxRectangle width="60" height="40" as="alternateBounds"/>
                    </mxGeometry>
                </mxCell>
                <mxCell id="529" value="&lt;span style=&quot;color: rgb(0, 0, 0); font-family: helvetica; font-size: 12px; font-style: normal; font-weight: 400; letter-spacing: normal; text-align: center; text-indent: 0px; text-transform: none; word-spacing: 0px; display: inline; float: none;&quot;&gt;float&lt;/span&gt;" style="shape=partialRectangle;html=1;whiteSpace=wrap;connectable=0;overflow=hidden;fillColor=none;top=0;left=0;bottom=0;right=0;pointerEvents=1;labelBackgroundColor=none;fontColor=#000000;strokeColor=#36393D;strokeWidth=2;" parent="527" vertex="1">
                    <mxGeometry x="60" width="60" height="40" as="geometry">
                        <mxRectangle width="60" height="40" as="alternateBounds"/>
                    </mxGeometry>
                </mxCell>
                <mxCell id="530" value="" style="shape=partialRectangle;collapsible=0;dropTarget=0;pointerEvents=0;fillColor=none;top=0;left=0;bottom=0;right=0;points=[[0,0.5],[1,0.5]];portConstraint=eastwest;labelBackgroundColor=none;fontColor=#000000;strokeColor=#36393D;strokeWidth=2;" parent="520" vertex="1">
                    <mxGeometry y="200" width="120" height="40" as="geometry"/>
                </mxCell>
                <mxCell id="531" value="1800" style="shape=partialRectangle;html=1;whiteSpace=wrap;connectable=0;overflow=hidden;fillColor=none;top=0;left=0;bottom=0;right=0;pointerEvents=1;labelBackgroundColor=none;fontColor=#000000;strokeColor=#36393D;strokeWidth=2;" parent="530" vertex="1">
                    <mxGeometry width="60" height="40" as="geometry">
                        <mxRectangle width="60" height="40" as="alternateBounds"/>
                    </mxGeometry>
                </mxCell>
                <mxCell id="532" value="&lt;meta charset=&quot;utf-8&quot;&gt;&lt;span style=&quot;color: rgb(0, 0, 0); font-family: helvetica; font-size: 12px; font-style: normal; font-weight: 400; letter-spacing: normal; text-align: center; text-indent: 0px; text-transform: none; word-spacing: 0px; display: inline; float: none;&quot;&gt;float&lt;/span&gt;" style="shape=partialRectangle;html=1;whiteSpace=wrap;connectable=0;overflow=hidden;fillColor=none;top=0;left=0;bottom=0;right=0;pointerEvents=1;labelBackgroundColor=none;fontColor=#000000;strokeColor=#36393D;strokeWidth=2;" parent="530" vertex="1">
                    <mxGeometry x="60" width="60" height="40" as="geometry">
                        <mxRectangle width="60" height="40" as="alternateBounds"/>
                    </mxGeometry>
                </mxCell>
                <mxCell id="533" value="" style="shape=partialRectangle;collapsible=0;dropTarget=0;pointerEvents=0;fillColor=none;top=0;left=0;bottom=0;right=0;points=[[0,0.5],[1,0.5]];portConstraint=eastwest;labelBackgroundColor=none;fontColor=#000000;strokeColor=#36393D;strokeWidth=2;" parent="520" vertex="1">
                    <mxGeometry y="240" width="120" height="40" as="geometry"/>
                </mxCell>
                <mxCell id="534" value="2000" style="shape=partialRectangle;html=1;whiteSpace=wrap;connectable=0;overflow=hidden;fillColor=none;top=0;left=0;bottom=0;right=0;pointerEvents=1;labelBackgroundColor=none;fontColor=#000000;strokeColor=#36393D;strokeWidth=2;" parent="533" vertex="1">
                    <mxGeometry width="60" height="40" as="geometry">
                        <mxRectangle width="60" height="40" as="alternateBounds"/>
                    </mxGeometry>
                </mxCell>
                <mxCell id="535" value="&lt;meta charset=&quot;utf-8&quot;&gt;&lt;span style=&quot;color: rgb(0, 0, 0); font-family: helvetica; font-size: 12px; font-style: normal; font-weight: 400; letter-spacing: normal; text-align: center; text-indent: 0px; text-transform: none; word-spacing: 0px; display: inline; float: none;&quot;&gt;float&lt;/span&gt;" style="shape=partialRectangle;html=1;whiteSpace=wrap;connectable=0;overflow=hidden;fillColor=none;top=0;left=0;bottom=0;right=0;pointerEvents=1;labelBackgroundColor=none;fontColor=#000000;strokeColor=#36393D;strokeWidth=2;" parent="533" vertex="1">
                    <mxGeometry x="60" width="60" height="40" as="geometry">
                        <mxRectangle width="60" height="40" as="alternateBounds"/>
                    </mxGeometry>
                </mxCell>
                <mxCell id="536" value="" style="shape=partialRectangle;collapsible=0;dropTarget=0;pointerEvents=0;fillColor=none;top=0;left=0;bottom=0;right=0;points=[[0,0.5],[1,0.5]];portConstraint=eastwest;labelBackgroundColor=none;fontColor=#000000;strokeColor=#36393D;strokeWidth=2;" parent="520" vertex="1">
                    <mxGeometry y="280" width="120" height="40" as="geometry"/>
                </mxCell>
                <mxCell id="537" value="2200" style="shape=partialRectangle;html=1;whiteSpace=wrap;connectable=0;overflow=hidden;fillColor=none;top=0;left=0;bottom=0;right=0;pointerEvents=1;labelBackgroundColor=none;fontColor=#000000;strokeColor=#36393D;strokeWidth=2;" parent="536" vertex="1">
                    <mxGeometry width="60" height="40" as="geometry">
                        <mxRectangle width="60" height="40" as="alternateBounds"/>
                    </mxGeometry>
                </mxCell>
                <mxCell id="538" value="&lt;meta charset=&quot;utf-8&quot;&gt;&lt;span style=&quot;color: rgb(0, 0, 0); font-family: helvetica; font-size: 12px; font-style: normal; font-weight: 400; letter-spacing: normal; text-align: center; text-indent: 0px; text-transform: none; word-spacing: 0px; display: inline; float: none;&quot;&gt;float&lt;/span&gt;" style="shape=partialRectangle;html=1;whiteSpace=wrap;connectable=0;overflow=hidden;fillColor=none;top=0;left=0;bottom=0;right=0;pointerEvents=1;labelBackgroundColor=none;fontColor=#000000;strokeColor=#36393D;strokeWidth=2;" parent="536" vertex="1">
                    <mxGeometry x="60" width="60" height="40" as="geometry">
                        <mxRectangle width="60" height="40" as="alternateBounds"/>
                    </mxGeometry>
                </mxCell>
                <mxCell id="539" value="" style="shape=partialRectangle;collapsible=0;dropTarget=0;pointerEvents=0;fillColor=none;top=0;left=0;bottom=0;right=0;points=[[0,0.5],[1,0.5]];portConstraint=eastwest;labelBackgroundColor=none;fontColor=#000000;strokeColor=#36393D;strokeWidth=2;" parent="520" vertex="1">
                    <mxGeometry y="320" width="120" height="40" as="geometry"/>
                </mxCell>
                <mxCell id="540" value="2500" style="shape=partialRectangle;html=1;whiteSpace=wrap;connectable=0;overflow=hidden;fillColor=none;top=0;left=0;bottom=0;right=0;pointerEvents=1;labelBackgroundColor=none;fontColor=#000000;strokeColor=#36393D;strokeWidth=2;" parent="539" vertex="1">
                    <mxGeometry width="60" height="40" as="geometry">
                        <mxRectangle width="60" height="40" as="alternateBounds"/>
                    </mxGeometry>
                </mxCell>
                <mxCell id="541" value="&lt;meta charset=&quot;utf-8&quot;&gt;&lt;span style=&quot;color: rgb(0, 0, 0); font-family: helvetica; font-size: 12px; font-style: normal; font-weight: 400; letter-spacing: normal; text-align: center; text-indent: 0px; text-transform: none; word-spacing: 0px; display: inline; float: none;&quot;&gt;float&lt;/span&gt;" style="shape=partialRectangle;html=1;whiteSpace=wrap;connectable=0;overflow=hidden;fillColor=none;top=0;left=0;bottom=0;right=0;pointerEvents=1;labelBackgroundColor=none;fontColor=#000000;strokeColor=#36393D;strokeWidth=2;" parent="539" vertex="1">
                    <mxGeometry x="60" width="60" height="40" as="geometry">
                        <mxRectangle width="60" height="40" as="alternateBounds"/>
                    </mxGeometry>
                </mxCell>
                <mxCell id="542" value="" style="shape=partialRectangle;collapsible=0;dropTarget=0;pointerEvents=0;fillColor=none;top=0;left=0;bottom=0;right=0;points=[[0,0.5],[1,0.5]];portConstraint=eastwest;labelBackgroundColor=none;fontColor=#000000;strokeColor=#36393D;strokeWidth=2;" parent="520" vertex="1">
                    <mxGeometry y="360" width="120" height="40" as="geometry"/>
                </mxCell>
                <mxCell id="543" value="2700" style="shape=partialRectangle;html=1;whiteSpace=wrap;connectable=0;overflow=hidden;fillColor=none;top=0;left=0;bottom=0;right=0;pointerEvents=1;labelBackgroundColor=none;fontColor=#000000;strokeColor=#36393D;strokeWidth=2;" parent="542" vertex="1">
                    <mxGeometry width="60" height="40" as="geometry">
                        <mxRectangle width="60" height="40" as="alternateBounds"/>
                    </mxGeometry>
                </mxCell>
                <mxCell id="544" value="&lt;meta charset=&quot;utf-8&quot;&gt;&lt;span style=&quot;color: rgb(0, 0, 0); font-family: helvetica; font-size: 12px; font-style: normal; font-weight: 400; letter-spacing: normal; text-align: center; text-indent: 0px; text-transform: none; word-spacing: 0px; display: inline; float: none;&quot;&gt;float&lt;/span&gt;" style="shape=partialRectangle;html=1;whiteSpace=wrap;connectable=0;overflow=hidden;fillColor=none;top=0;left=0;bottom=0;right=0;pointerEvents=1;labelBackgroundColor=none;fontColor=#000000;strokeColor=#36393D;strokeWidth=2;" parent="542" vertex="1">
                    <mxGeometry x="60" width="60" height="40" as="geometry">
                        <mxRectangle width="60" height="40" as="alternateBounds"/>
                    </mxGeometry>
                </mxCell>
                <mxCell id="552" value="" style="endArrow=classic;html=1;strokeWidth=5;jumpSize=6;entryX=1;entryY=0.5;entryDx=0;entryDy=0;" parent="1" target="517" edge="1">
                    <mxGeometry width="50" height="50" relative="1" as="geometry">
                        <mxPoint x="-730" y="-1450" as="sourcePoint"/>
                        <mxPoint x="-744.25" y="-1450" as="targetPoint"/>
                        <Array as="points">
                            <mxPoint x="-770" y="-1450"/>
                            <mxPoint x="-770" y="-1240"/>
                        </Array>
                    </mxGeometry>
                </mxCell>
                <mxCell id="554" value="" style="endArrow=classic;html=1;strokeWidth=5;jumpSize=6;exitX=0;exitY=0.5;exitDx=0;exitDy=0;" parent="1" source="480" edge="1">
                    <mxGeometry width="50" height="50" relative="1" as="geometry">
                        <mxPoint x="-520.0000000000002" y="-1410" as="sourcePoint"/>
                        <mxPoint x="-600" y="-1410" as="targetPoint"/>
                    </mxGeometry>
                </mxCell>
                <mxCell id="556" value="" style="shape=table;startSize=0;container=1;collapsible=0;childLayout=tableLayout;labelBackgroundColor=none;strokeColor=#d79b00;strokeWidth=2;fillColor=#ffe6cc;" parent="1" vertex="1">
                    <mxGeometry x="-500" y="-1270" width="140" height="160" as="geometry"/>
                </mxCell>
                <mxCell id="557" value="" style="shape=partialRectangle;collapsible=0;dropTarget=0;pointerEvents=0;fillColor=none;top=0;left=0;bottom=0;right=0;points=[[0,0.5],[1,0.5]];portConstraint=eastwest;labelBackgroundColor=none;fontColor=#000000;strokeColor=#36393D;strokeWidth=2;" parent="556" vertex="1">
                    <mxGeometry width="140" height="40" as="geometry"/>
                </mxCell>
                <mxCell id="558" value="食物代換表" style="shape=partialRectangle;html=1;whiteSpace=wrap;connectable=0;overflow=hidden;fillColor=none;top=0;left=0;bottom=0;right=0;pointerEvents=1;labelBackgroundColor=none;fontColor=#000000;strokeColor=#36393D;strokeWidth=2;" parent="557" vertex="1">
                    <mxGeometry width="70" height="40" as="geometry">
                        <mxRectangle width="70" height="40" as="alternateBounds"/>
                    </mxGeometry>
                </mxCell>
                <mxCell id="559" value="" style="shape=partialRectangle;html=1;whiteSpace=wrap;connectable=0;overflow=hidden;fillColor=none;top=0;left=0;bottom=0;right=0;pointerEvents=1;labelBackgroundColor=none;fontColor=#000000;strokeColor=#36393D;strokeWidth=2;" parent="557" vertex="1">
                    <mxGeometry x="70" width="70" height="40" as="geometry">
                        <mxRectangle width="70" height="40" as="alternateBounds"/>
                    </mxGeometry>
                </mxCell>
                <mxCell id="560" value="" style="shape=partialRectangle;collapsible=0;dropTarget=0;pointerEvents=0;fillColor=none;top=0;left=0;bottom=0;right=0;points=[[0,0.5],[1,0.5]];portConstraint=eastwest;labelBackgroundColor=none;fontColor=#000000;strokeColor=#36393D;strokeWidth=2;" parent="556" vertex="1">
                    <mxGeometry y="40" width="140" height="40" as="geometry"/>
                </mxCell>
                <mxCell id="561" value="食品代號PK" style="shape=partialRectangle;html=1;whiteSpace=wrap;connectable=0;overflow=hidden;fillColor=none;top=0;left=0;bottom=0;right=0;pointerEvents=1;labelBackgroundColor=none;fontColor=#000000;strokeColor=#36393D;strokeWidth=2;" parent="560" vertex="1">
                    <mxGeometry width="70" height="40" as="geometry">
                        <mxRectangle width="70" height="40" as="alternateBounds"/>
                    </mxGeometry>
                </mxCell>
                <mxCell id="562" value="int" style="shape=partialRectangle;html=1;whiteSpace=wrap;connectable=0;overflow=hidden;fillColor=none;top=0;left=0;bottom=0;right=0;pointerEvents=1;labelBackgroundColor=none;fontColor=#000000;strokeColor=#36393D;strokeWidth=2;" parent="560" vertex="1">
                    <mxGeometry x="70" width="70" height="40" as="geometry">
                        <mxRectangle width="70" height="40" as="alternateBounds"/>
                    </mxGeometry>
                </mxCell>
                <mxCell id="563" value="" style="shape=partialRectangle;collapsible=0;dropTarget=0;pointerEvents=0;fillColor=none;top=0;left=0;bottom=0;right=0;points=[[0,0.5],[1,0.5]];portConstraint=eastwest;labelBackgroundColor=none;fontColor=#000000;strokeColor=#36393D;strokeWidth=2;" parent="556" vertex="1">
                    <mxGeometry y="80" width="140" height="40" as="geometry"/>
                </mxCell>
                <mxCell id="564" value="食品名稱" style="shape=partialRectangle;html=1;whiteSpace=wrap;connectable=0;overflow=hidden;fillColor=none;top=0;left=0;bottom=0;right=0;pointerEvents=1;labelBackgroundColor=none;fontColor=#000000;strokeColor=#36393D;strokeWidth=2;" parent="563" vertex="1">
                    <mxGeometry width="70" height="40" as="geometry">
                        <mxRectangle width="70" height="40" as="alternateBounds"/>
                    </mxGeometry>
                </mxCell>
                <mxCell id="565" value="varchar" style="shape=partialRectangle;html=1;whiteSpace=wrap;connectable=0;overflow=hidden;fillColor=none;top=0;left=0;bottom=0;right=0;pointerEvents=1;labelBackgroundColor=none;fontColor=#000000;strokeColor=#36393D;strokeWidth=2;" parent="563" vertex="1">
                    <mxGeometry x="70" width="70" height="40" as="geometry">
                        <mxRectangle width="70" height="40" as="alternateBounds"/>
                    </mxGeometry>
                </mxCell>
                <mxCell id="566" value="" style="shape=partialRectangle;collapsible=0;dropTarget=0;pointerEvents=0;fillColor=none;top=0;left=0;bottom=0;right=0;points=[[0,0.5],[1,0.5]];portConstraint=eastwest;labelBackgroundColor=none;fontColor=#000000;strokeColor=#36393D;strokeWidth=2;" parent="556" vertex="1">
                    <mxGeometry y="120" width="140" height="40" as="geometry"/>
                </mxCell>
                <mxCell id="567" value="份量" style="shape=partialRectangle;html=1;whiteSpace=wrap;connectable=0;overflow=hidden;fillColor=none;top=0;left=0;bottom=0;right=0;pointerEvents=1;labelBackgroundColor=none;fontColor=#000000;strokeColor=#36393D;strokeWidth=2;" parent="566" vertex="1">
                    <mxGeometry width="70" height="40" as="geometry">
                        <mxRectangle width="70" height="40" as="alternateBounds"/>
                    </mxGeometry>
                </mxCell>
                <mxCell id="568" value="float" style="shape=partialRectangle;html=1;whiteSpace=wrap;connectable=0;overflow=hidden;fillColor=none;top=0;left=0;bottom=0;right=0;pointerEvents=1;labelBackgroundColor=none;fontColor=#000000;strokeColor=#36393D;strokeWidth=2;" parent="566" vertex="1">
                    <mxGeometry x="70" width="70" height="40" as="geometry">
                        <mxRectangle width="70" height="40" as="alternateBounds"/>
                    </mxGeometry>
                </mxCell>
                <mxCell id="588" value="" style="shape=table;startSize=0;container=1;collapsible=0;childLayout=tableLayout;labelBackgroundColor=none;strokeColor=#d79b00;fillColor=#ffe6cc;strokeWidth=2;" parent="1" vertex="1">
                    <mxGeometry x="-660" y="-950" width="170" height="240.00000000000023" as="geometry"/>
                </mxCell>
                <mxCell id="589" value="" style="shape=partialRectangle;collapsible=0;dropTarget=0;pointerEvents=0;fillColor=none;top=0;left=0;bottom=0;right=0;points=[[0,0.5],[1,0.5]];portConstraint=eastwest;labelBackgroundColor=#2a2a2a;fontColor=#000000;strokeColor=#000000;" parent="588" vertex="1">
                    <mxGeometry width="170" height="40" as="geometry"/>
                </mxCell>
                <mxCell id="590" value="會員飲食紀錄" style="shape=partialRectangle;html=1;whiteSpace=wrap;connectable=0;overflow=hidden;fillColor=none;top=0;left=0;bottom=0;right=0;pointerEvents=1;labelBackgroundColor=none;fontColor=#000000;strokeColor=#000000;" parent="589" vertex="1">
                    <mxGeometry width="85" height="40" as="geometry">
                        <mxRectangle width="85" height="40" as="alternateBounds"/>
                    </mxGeometry>
                </mxCell>
                <mxCell id="591" value="" style="shape=partialRectangle;html=1;whiteSpace=wrap;connectable=0;overflow=hidden;fillColor=none;top=0;left=0;bottom=0;right=0;pointerEvents=1;labelBackgroundColor=#2a2a2a;fontColor=#000000;strokeColor=#000000;" parent="589" vertex="1">
                    <mxGeometry x="85" width="85" height="40" as="geometry">
                        <mxRectangle width="85" height="40" as="alternateBounds"/>
                    </mxGeometry>
                </mxCell>
                <mxCell id="626" style="shape=partialRectangle;collapsible=0;dropTarget=0;pointerEvents=0;fillColor=none;top=0;left=0;bottom=0;right=0;points=[[0,0.5],[1,0.5]];portConstraint=eastwest;labelBackgroundColor=#2a2a2a;fontColor=#000000;strokeColor=#000000;" parent="588" vertex="1">
                    <mxGeometry y="40" width="170" height="40" as="geometry"/>
                </mxCell>
                <mxCell id="627" value="會員編號FK" style="shape=partialRectangle;html=1;whiteSpace=wrap;connectable=0;overflow=hidden;fillColor=none;top=0;left=0;bottom=0;right=0;pointerEvents=1;labelBackgroundColor=none;fontColor=#000000;strokeColor=#000000;" parent="626" vertex="1">
                    <mxGeometry width="85" height="40" as="geometry">
                        <mxRectangle width="85" height="40" as="alternateBounds"/>
                    </mxGeometry>
                </mxCell>
                <mxCell id="628" value="int" style="shape=partialRectangle;html=1;whiteSpace=wrap;connectable=0;overflow=hidden;fillColor=none;top=0;left=0;bottom=0;right=0;pointerEvents=1;labelBackgroundColor=none;fontColor=#000000;strokeColor=#000000;" parent="626" vertex="1">
                    <mxGeometry x="85" width="85" height="40" as="geometry">
                        <mxRectangle width="85" height="40" as="alternateBounds"/>
                    </mxGeometry>
                </mxCell>
                <mxCell id="629" style="shape=partialRectangle;collapsible=0;dropTarget=0;pointerEvents=0;fillColor=none;top=0;left=0;bottom=0;right=0;points=[[0,0.5],[1,0.5]];portConstraint=eastwest;labelBackgroundColor=#2a2a2a;fontColor=#000000;strokeColor=#000000;" parent="588" vertex="1">
                    <mxGeometry y="80" width="170" height="40" as="geometry"/>
                </mxCell>
                <mxCell id="630" value="日期" style="shape=partialRectangle;html=1;whiteSpace=wrap;connectable=0;overflow=hidden;fillColor=none;top=0;left=0;bottom=0;right=0;pointerEvents=1;labelBackgroundColor=none;fontColor=#000000;strokeColor=#000000;" parent="629" vertex="1">
                    <mxGeometry width="85" height="40" as="geometry">
                        <mxRectangle width="85" height="40" as="alternateBounds"/>
                    </mxGeometry>
                </mxCell>
                <mxCell id="631" value="date" style="shape=partialRectangle;html=1;whiteSpace=wrap;connectable=0;overflow=hidden;fillColor=none;top=0;left=0;bottom=0;right=0;pointerEvents=1;labelBackgroundColor=none;fontColor=#000000;strokeColor=#000000;" parent="629" vertex="1">
                    <mxGeometry x="85" width="85" height="40" as="geometry">
                        <mxRectangle width="85" height="40" as="alternateBounds"/>
                    </mxGeometry>
                </mxCell>
                <mxCell id="592" value="" style="shape=partialRectangle;collapsible=0;dropTarget=0;pointerEvents=0;fillColor=none;top=0;left=0;bottom=0;right=0;points=[[0,0.5],[1,0.5]];portConstraint=eastwest;labelBackgroundColor=#2a2a2a;fontColor=#000000;strokeColor=#000000;" parent="588" vertex="1">
                    <mxGeometry y="120" width="170" height="40" as="geometry"/>
                </mxCell>
                <mxCell id="593" value="&lt;span style=&quot;font-size: 14px&quot;&gt;食物樣品編號FK&lt;/span&gt;" style="shape=partialRectangle;html=1;whiteSpace=wrap;connectable=0;overflow=hidden;fillColor=none;top=0;left=0;bottom=0;right=0;pointerEvents=1;labelBackgroundColor=none;fontColor=#000000;strokeColor=#000000;" parent="592" vertex="1">
                    <mxGeometry width="85" height="40" as="geometry">
                        <mxRectangle width="85" height="40" as="alternateBounds"/>
                    </mxGeometry>
                </mxCell>
                <mxCell id="594" value="int" style="shape=partialRectangle;html=1;whiteSpace=wrap;connectable=0;overflow=hidden;fillColor=none;top=0;left=0;bottom=0;right=0;pointerEvents=1;labelBackgroundColor=none;fontColor=#000000;strokeColor=#000000;" parent="592" vertex="1">
                    <mxGeometry x="85" width="85" height="40" as="geometry">
                        <mxRectangle width="85" height="40" as="alternateBounds"/>
                    </mxGeometry>
                </mxCell>
                <mxCell id="607" style="shape=partialRectangle;collapsible=0;dropTarget=0;pointerEvents=0;fillColor=none;top=0;left=0;bottom=0;right=0;points=[[0,0.5],[1,0.5]];portConstraint=eastwest;labelBackgroundColor=#2a2a2a;fontColor=#000000;strokeColor=#000000;" parent="588" vertex="1">
                    <mxGeometry y="160" width="170" height="40" as="geometry"/>
                </mxCell>
                <mxCell id="608" value="食物名稱" style="shape=partialRectangle;html=1;whiteSpace=wrap;connectable=0;overflow=hidden;fillColor=none;top=0;left=0;bottom=0;right=0;pointerEvents=1;labelBackgroundColor=none;fontColor=#000000;strokeColor=#000000;" parent="607" vertex="1">
                    <mxGeometry width="85" height="40" as="geometry">
                        <mxRectangle width="85" height="40" as="alternateBounds"/>
                    </mxGeometry>
                </mxCell>
                <mxCell id="609" value="varchar" style="shape=partialRectangle;html=1;whiteSpace=wrap;connectable=0;overflow=hidden;fillColor=none;top=0;left=0;bottom=0;right=0;pointerEvents=1;labelBackgroundColor=none;fontColor=#000000;strokeColor=#000000;" parent="607" vertex="1">
                    <mxGeometry x="85" width="85" height="40" as="geometry">
                        <mxRectangle width="85" height="40" as="alternateBounds"/>
                    </mxGeometry>
                </mxCell>
                <mxCell id="595" value="" style="shape=partialRectangle;collapsible=0;dropTarget=0;pointerEvents=0;fillColor=none;top=0;left=0;bottom=0;right=0;points=[[0,0.5],[1,0.5]];portConstraint=eastwest;labelBackgroundColor=#2a2a2a;fontColor=#000000;strokeColor=#000000;" parent="588" vertex="1">
                    <mxGeometry y="200" width="170" height="40" as="geometry"/>
                </mxCell>
                <mxCell id="596" value="攝取總熱量" style="shape=partialRectangle;html=1;whiteSpace=wrap;connectable=0;overflow=hidden;fillColor=none;top=0;left=0;bottom=0;right=0;pointerEvents=1;labelBackgroundColor=none;fontColor=#000000;strokeColor=#000000;" parent="595" vertex="1">
                    <mxGeometry width="85" height="40" as="geometry">
                        <mxRectangle width="85" height="40" as="alternateBounds"/>
                    </mxGeometry>
                </mxCell>
                <mxCell id="597" value="int" style="shape=partialRectangle;html=1;whiteSpace=wrap;connectable=0;overflow=hidden;fillColor=none;top=0;left=0;bottom=0;right=0;pointerEvents=1;labelBackgroundColor=none;fontColor=#000000;strokeColor=#000000;" parent="595" vertex="1">
                    <mxGeometry x="85" width="85" height="40" as="geometry">
                        <mxRectangle width="85" height="40" as="alternateBounds"/>
                    </mxGeometry>
                </mxCell>
                <mxCell id="610" value="" style="shape=table;startSize=0;container=1;collapsible=0;childLayout=tableLayout;labelBackgroundColor=none;strokeColor=#d79b00;strokeWidth=2;fillColor=#ffe6cc;" parent="1" vertex="1">
                    <mxGeometry x="-400" y="-960" width="170" height="400" as="geometry"/>
                </mxCell>
                <mxCell id="611" value="" style="shape=partialRectangle;collapsible=0;dropTarget=0;pointerEvents=0;fillColor=none;top=0;left=0;bottom=0;right=0;points=[[0,0.5],[1,0.5]];portConstraint=eastwest;labelBackgroundColor=none;fontColor=#000000;strokeColor=#36393D;strokeWidth=2;" parent="610" vertex="1">
                    <mxGeometry width="170" height="50" as="geometry"/>
                </mxCell>
                <mxCell id="612" value="食品營養成分資料庫" style="shape=partialRectangle;html=1;whiteSpace=wrap;connectable=0;overflow=hidden;fillColor=none;top=0;left=0;bottom=0;right=0;pointerEvents=1;labelBackgroundColor=none;fontColor=#000000;strokeColor=#36393D;strokeWidth=2;" parent="611" vertex="1">
                    <mxGeometry width="85" height="50" as="geometry">
                        <mxRectangle width="85" height="50" as="alternateBounds"/>
                    </mxGeometry>
                </mxCell>
                <mxCell id="613" value="" style="shape=partialRectangle;html=1;whiteSpace=wrap;connectable=0;overflow=hidden;fillColor=none;top=0;left=0;bottom=0;right=0;pointerEvents=1;labelBackgroundColor=none;fontColor=#000000;strokeColor=#36393D;strokeWidth=2;" parent="611" vertex="1">
                    <mxGeometry x="85" width="85" height="50" as="geometry">
                        <mxRectangle width="85" height="50" as="alternateBounds"/>
                    </mxGeometry>
                </mxCell>
                <mxCell id="614" value="" style="shape=partialRectangle;collapsible=0;dropTarget=0;pointerEvents=0;fillColor=none;top=0;left=0;bottom=0;right=0;points=[[0,0.5],[1,0.5]];portConstraint=eastwest;labelBackgroundColor=none;fontColor=#000000;strokeColor=#36393D;strokeWidth=2;" parent="610" vertex="1">
                    <mxGeometry y="50" width="170" height="50" as="geometry"/>
                </mxCell>
                <mxCell id="615" value="食品編號PK" style="shape=partialRectangle;html=1;whiteSpace=wrap;connectable=0;overflow=hidden;fillColor=none;top=0;left=0;bottom=0;right=0;pointerEvents=1;labelBackgroundColor=none;fontColor=#000000;strokeColor=#36393D;strokeWidth=2;" parent="614" vertex="1">
                    <mxGeometry width="85" height="50" as="geometry">
                        <mxRectangle width="85" height="50" as="alternateBounds"/>
                    </mxGeometry>
                </mxCell>
                <mxCell id="616" value="varchar" style="shape=partialRectangle;html=1;whiteSpace=wrap;connectable=0;overflow=hidden;fillColor=none;top=0;left=0;bottom=0;right=0;pointerEvents=1;labelBackgroundColor=none;fontColor=#000000;strokeColor=#36393D;strokeWidth=2;" parent="614" vertex="1">
                    <mxGeometry x="85" width="85" height="50" as="geometry">
                        <mxRectangle width="85" height="50" as="alternateBounds"/>
                    </mxGeometry>
                </mxCell>
                <mxCell id="617" value="" style="shape=partialRectangle;collapsible=0;dropTarget=0;pointerEvents=0;fillColor=none;top=0;left=0;bottom=0;right=0;points=[[0,0.5],[1,0.5]];portConstraint=eastwest;labelBackgroundColor=none;fontColor=#000000;strokeColor=#36393D;strokeWidth=2;" parent="610" vertex="1">
                    <mxGeometry y="100" width="170" height="50" as="geometry"/>
                </mxCell>
                <mxCell id="618" value="食物名稱" style="shape=partialRectangle;html=1;whiteSpace=wrap;connectable=0;overflow=hidden;fillColor=none;top=0;left=0;bottom=0;right=0;pointerEvents=1;labelBackgroundColor=none;fontColor=#000000;strokeColor=#36393D;strokeWidth=2;" parent="617" vertex="1">
                    <mxGeometry width="85" height="50" as="geometry">
                        <mxRectangle width="85" height="50" as="alternateBounds"/>
                    </mxGeometry>
                </mxCell>
                <mxCell id="619" value="varchar" style="shape=partialRectangle;html=1;whiteSpace=wrap;connectable=0;overflow=hidden;fillColor=none;top=0;left=0;bottom=0;right=0;pointerEvents=1;labelBackgroundColor=none;fontColor=#000000;strokeColor=#36393D;strokeWidth=2;" parent="617" vertex="1">
                    <mxGeometry x="85" width="85" height="50" as="geometry">
                        <mxRectangle width="85" height="50" as="alternateBounds"/>
                    </mxGeometry>
                </mxCell>
                <mxCell id="620" value="" style="shape=partialRectangle;collapsible=0;dropTarget=0;pointerEvents=0;fillColor=none;top=0;left=0;bottom=0;right=0;points=[[0,0.5],[1,0.5]];portConstraint=eastwest;labelBackgroundColor=none;fontColor=#000000;strokeColor=#36393D;strokeWidth=2;" parent="610" vertex="1">
                    <mxGeometry y="150" width="170" height="50" as="geometry"/>
                </mxCell>
                <mxCell id="621" value="分類" style="shape=partialRectangle;html=1;whiteSpace=wrap;connectable=0;overflow=hidden;fillColor=none;top=0;left=0;bottom=0;right=0;pointerEvents=1;labelBackgroundColor=none;fontColor=#000000;strokeColor=#36393D;strokeWidth=2;" parent="620" vertex="1">
                    <mxGeometry width="85" height="50" as="geometry">
                        <mxRectangle width="85" height="50" as="alternateBounds"/>
                    </mxGeometry>
                </mxCell>
                <mxCell id="622" value="varchar" style="shape=partialRectangle;html=1;whiteSpace=wrap;connectable=0;overflow=hidden;fillColor=none;top=0;left=0;bottom=0;right=0;pointerEvents=1;labelBackgroundColor=none;fontColor=#000000;strokeColor=#36393D;strokeWidth=2;" parent="620" vertex="1">
                    <mxGeometry x="85" width="85" height="50" as="geometry">
                        <mxRectangle width="85" height="50" as="alternateBounds"/>
                    </mxGeometry>
                </mxCell>
                <mxCell id="623" value="" style="shape=partialRectangle;collapsible=0;dropTarget=0;pointerEvents=0;fillColor=none;top=0;left=0;bottom=0;right=0;points=[[0,0.5],[1,0.5]];portConstraint=eastwest;labelBackgroundColor=none;fontColor=#000000;strokeColor=#36393D;strokeWidth=2;" parent="610" vertex="1">
                    <mxGeometry y="200" width="170" height="50" as="geometry"/>
                </mxCell>
                <mxCell id="624" value="熱量" style="shape=partialRectangle;html=1;whiteSpace=wrap;connectable=0;overflow=hidden;fillColor=none;top=0;left=0;bottom=0;right=0;pointerEvents=1;labelBackgroundColor=none;fontColor=#000000;strokeColor=#36393D;strokeWidth=2;" parent="623" vertex="1">
                    <mxGeometry width="85" height="50" as="geometry">
                        <mxRectangle width="85" height="50" as="alternateBounds"/>
                    </mxGeometry>
                </mxCell>
                <mxCell id="625" value="float" style="shape=partialRectangle;html=1;whiteSpace=wrap;connectable=0;overflow=hidden;fillColor=none;top=0;left=0;bottom=0;right=0;pointerEvents=1;labelBackgroundColor=none;fontColor=#000000;strokeColor=#36393D;strokeWidth=2;" parent="623" vertex="1">
                    <mxGeometry x="85" width="85" height="50" as="geometry">
                        <mxRectangle width="85" height="50" as="alternateBounds"/>
                    </mxGeometry>
                </mxCell>
                <mxCell id="632" style="shape=partialRectangle;collapsible=0;dropTarget=0;pointerEvents=0;fillColor=none;top=0;left=0;bottom=0;right=0;points=[[0,0.5],[1,0.5]];portConstraint=eastwest;labelBackgroundColor=none;fontColor=#000000;strokeColor=#36393D;strokeWidth=2;" parent="610" vertex="1">
                    <mxGeometry y="250" width="170" height="50" as="geometry"/>
                </mxCell>
                <mxCell id="633" value="碳水化合物" style="shape=partialRectangle;html=1;whiteSpace=wrap;connectable=0;overflow=hidden;fillColor=none;top=0;left=0;bottom=0;right=0;pointerEvents=1;labelBackgroundColor=none;fontColor=#000000;strokeColor=#36393D;strokeWidth=2;" parent="632" vertex="1">
                    <mxGeometry width="85" height="50" as="geometry">
                        <mxRectangle width="85" height="50" as="alternateBounds"/>
                    </mxGeometry>
                </mxCell>
                <mxCell id="634" value="float" style="shape=partialRectangle;html=1;whiteSpace=wrap;connectable=0;overflow=hidden;fillColor=none;top=0;left=0;bottom=0;right=0;pointerEvents=1;labelBackgroundColor=none;fontColor=#000000;strokeColor=#36393D;strokeWidth=2;" parent="632" vertex="1">
                    <mxGeometry x="85" width="85" height="50" as="geometry">
                        <mxRectangle width="85" height="50" as="alternateBounds"/>
                    </mxGeometry>
                </mxCell>
                <mxCell id="635" style="shape=partialRectangle;collapsible=0;dropTarget=0;pointerEvents=0;fillColor=none;top=0;left=0;bottom=0;right=0;points=[[0,0.5],[1,0.5]];portConstraint=eastwest;labelBackgroundColor=none;fontColor=#000000;strokeColor=#36393D;strokeWidth=2;" parent="610" vertex="1">
                    <mxGeometry y="300" width="170" height="50" as="geometry"/>
                </mxCell>
                <mxCell id="636" value="脂肪" style="shape=partialRectangle;html=1;whiteSpace=wrap;connectable=0;overflow=hidden;fillColor=none;top=0;left=0;bottom=0;right=0;pointerEvents=1;labelBackgroundColor=none;fontColor=#000000;strokeColor=#36393D;strokeWidth=2;" parent="635" vertex="1">
                    <mxGeometry width="85" height="50" as="geometry">
                        <mxRectangle width="85" height="50" as="alternateBounds"/>
                    </mxGeometry>
                </mxCell>
                <mxCell id="637" value="float" style="shape=partialRectangle;html=1;whiteSpace=wrap;connectable=0;overflow=hidden;fillColor=none;top=0;left=0;bottom=0;right=0;pointerEvents=1;labelBackgroundColor=none;fontColor=#000000;strokeColor=#36393D;strokeWidth=2;" parent="635" vertex="1">
                    <mxGeometry x="85" width="85" height="50" as="geometry">
                        <mxRectangle width="85" height="50" as="alternateBounds"/>
                    </mxGeometry>
                </mxCell>
                <mxCell id="638" style="shape=partialRectangle;collapsible=0;dropTarget=0;pointerEvents=0;fillColor=none;top=0;left=0;bottom=0;right=0;points=[[0,0.5],[1,0.5]];portConstraint=eastwest;labelBackgroundColor=none;fontColor=#000000;strokeColor=#36393D;strokeWidth=2;" parent="610" vertex="1">
                    <mxGeometry y="350" width="170" height="50" as="geometry"/>
                </mxCell>
                <mxCell id="639" value="蛋白質" style="shape=partialRectangle;html=1;whiteSpace=wrap;connectable=0;overflow=hidden;fillColor=none;top=0;left=0;bottom=0;right=0;pointerEvents=1;labelBackgroundColor=none;fontColor=#000000;strokeColor=#36393D;strokeWidth=2;" parent="638" vertex="1">
                    <mxGeometry width="85" height="50" as="geometry">
                        <mxRectangle width="85" height="50" as="alternateBounds"/>
                    </mxGeometry>
                </mxCell>
                <mxCell id="640" value="float" style="shape=partialRectangle;html=1;whiteSpace=wrap;connectable=0;overflow=hidden;fillColor=none;top=0;left=0;bottom=0;right=0;pointerEvents=1;labelBackgroundColor=none;fontColor=#000000;strokeColor=#36393D;strokeWidth=2;" parent="638" vertex="1">
                    <mxGeometry x="85" width="85" height="50" as="geometry">
                        <mxRectangle width="85" height="50" as="alternateBounds"/>
                    </mxGeometry>
                </mxCell>
                <mxCell id="641" value="" style="endArrow=classic;html=1;strokeWidth=5;jumpSize=6;exitX=0;exitY=0.5;exitDx=0;exitDy=0;entryX=1;entryY=0.5;entryDx=0;entryDy=0;" parent="1" target="592" edge="1">
                    <mxGeometry width="50" height="50" relative="1" as="geometry">
                        <mxPoint x="-400" y="-880.0000000000002" as="sourcePoint"/>
                        <mxPoint x="-500" y="-880.0000000000002" as="targetPoint"/>
                        <Array as="points">
                            <mxPoint x="-450" y="-880"/>
                            <mxPoint x="-450" y="-810"/>
                        </Array>
                    </mxGeometry>
                </mxCell>
            </root>
        </mxGraphModel>
    </diagram>
</mxfile>